<mxfile host="app.diagrams.net" modified="2024-06-25T17:10:18.698Z" agent="Mozilla/5.0 (Windows NT 10.0; Win64; x64) AppleWebKit/537.36 (KHTML, like Gecko) Chrome/126.0.0.0 Safari/537.36" etag="Xg2xbfDFNnw5lqJwSHVf" version="24.6.2" type="github">
  <diagram name="PÃ¡gina-1" id="CeJf4P0RmYV0L_dJWsQc">
    <mxGraphModel dx="1808" dy="652" grid="1" gridSize="10" guides="1" tooltips="1" connect="1" arrows="1" fold="1" page="1" pageScale="1" pageWidth="827" pageHeight="1169" math="0" shadow="0">
      <root>
        <mxCell id="0" />
        <mxCell id="1" parent="0" />
        <mxCell id="Y54GdZBKNnL4c3YkCNKC-1" value="" style="shape=image;verticalLabelPosition=bottom;labelBackgroundColor=default;verticalAlign=top;aspect=fixed;imageAspect=0;image=data:image/svg+xml,PHN2ZyB4bWxucz0iaHR0cDovL3d3dy53My5vcmcvMjAwMC9zdmciIHhtbG5zOnhsaW5rPSJodHRwOi8vd3d3LnczLm9yZy8xOTk5L3hsaW5rIiB2ZXJzaW9uPSIxLjEiIHZpZXdCb3g9IjAgMCA0MzIgNDMyIiBoZWlnaHQ9IjQzMnB0IiB3aWR0aD0iNDMycHQiPiYjeGE7IDxtZXRhZGF0YT4mI3hhOyAgJiN4YTsgICAmI3hhOyAgICAmI3hhOyAgICAyMDI0LTA2LTEyVDE5OjU0OjIxLjI0OTQ1NiYjeGE7ICAgIGltYWdlL3N2Zyt4bWwmI3hhOyAgICAmI3hhOyAgICAgJiN4YTsgICAgICBNYXRwbG90bGliIHYzLjkuMCwgaHR0cHM6Ly9tYXRwbG90bGliLm9yZy8mI3hhOyAgICAgJiN4YTsgICAgJiN4YTsgICAmI3hhOyAgJiN4YTsgPC9tZXRhZGF0YT4mI3hhOyA8ZGVmcz4mI3hhOyAgPHN0eWxlIHR5cGU9InRleHQvY3NzIj4qe3N0cm9rZS1saW5lam9pbjogcm91bmQ7IHN0cm9rZS1saW5lY2FwOiBidXR0fTwvc3R5bGU+JiN4YTsgPC9kZWZzPiYjeGE7IDxnIGlkPSJmaWd1cmVfMSI+JiN4YTsgIDxnIGlkPSJwYXRjaF8xIj4mI3hhOyAgIDxwYXRoIHN0eWxlPSJmaWxsOiBub25lIiBkPSJNIDAgNDMyICYjMTA7TCA0MzIgNDMyICYjMTA7TCA0MzIgMCAmIzEwO0wgMCAwICYjMTA7TCAwIDQzMiAmIzEwO3oiLz4mI3hhOyAgPC9nPiYjeGE7ICA8ZyBpZD0iYXhlc18xIj4mI3hhOyAgIDxnIGlkPSJwYXRjaF8yIj4mI3hhOyAgICA8cGF0aCBzdHlsZT0iZmlsbDogbm9uZSIgZD0iTSA1NCAzODQuNDggJiMxMDtMIDM4OC44IDM4NC40OCAmIzEwO0wgMzg4LjggNTEuODQgJiMxMDtMIDU0IDUxLjg0ICYjMTA7TCA1NCAzODQuNDggJiMxMDt6Ii8+JiN4YTsgICA8L2c+JiN4YTsgICA8ZyBpZD0icGF0Y2hfMyI+JiN4YTsgICAgPHBhdGggc3R5bGU9ImZpbGw6ICNmOGI1NGYiIGNsaXAtcGF0aD0idXJsKCNwNDE4MzNhODIxZSkiIGQ9Ik0gNjkuMjE4MTgyIDM4NC40OCAmIzEwO0wgMTMwLjA5MDkwOSAzODQuNDggJiMxMDtMIDEzMC4wOTA5MDkgMTkxLjU0ODggJiMxMDtMIDY5LjIxODE4MiAxOTEuNTQ4OCAmIzEwO3oiLz4mI3hhOyAgIDwvZz4mI3hhOyAgIDxnIGlkPSJwYXRjaF80Ij4mI3hhOyAgICA8cGF0aCBzdHlsZT0iZmlsbDogIzIzY2E4OSIgY2xpcC1wYXRoPSJ1cmwoI3A0MTgzM2E4MjFlKSIgZD0iTSAxOTAuOTYzNjM2IDM4NC40OCAmIzEwO0wgMjUxLjgzNjM2NCAzODQuNDggJiMxMDtMIDI1MS44MzYzNjQgMTQxLjY1MjggJiMxMDtMIDE5MC45NjM2MzYgMTQxLjY1MjggJiMxMDt6Ii8+JiN4YTsgICA8L2c+JiN4YTsgICA8ZyBpZD0icGF0Y2hfNSI+JiN4YTsgICAgPHBhdGggc3R5bGU9ImZpbGw6ICMyNjZhYzEiIGNsaXAtcGF0aD0idXJsKCNwNDE4MzNhODIxZSkiIGQ9Ik0gMzEyLjcwOTA5MSAzODQuNDggJiMxMDtMIDM3My41ODE4MTggMzg0LjQ4ICYjMTA7TCAzNzMuNTgxODE4IDE2OC4yNjQgJiMxMDtMIDMxMi43MDkwOTEgMTY4LjI2NCAmIzEwO3oiLz4mI3hhOyAgIDwvZz4mI3hhOyAgIDxnIGlkPSJtYXRwbG90bGliLmF4aXNfMSI+JiN4YTsgICAgPGcgaWQ9Inh0aWNrXzEiPiYjeGE7ICAgICA8ZyBpZD0ibGluZTJkXzEiPiYjeGE7ICAgICAgPGRlZnM+JiN4YTsgICAgICAgPHBhdGggc3R5bGU9InN0cm9rZTogIzAwMDAwMDsgc3Ryb2tlLXdpZHRoOiAwLjgiIGQ9Ik0gMCAwICYjMTA7TCAwIDMuNSIgaWQ9Im0xZWY4ZmNhYTM3Ii8+JiN4YTsgICAgICA8L2RlZnM+JiN4YTsgICAgICA8Zz4mI3hhOyAgICAgICA8dXNlIHN0eWxlPSJzdHJva2U6ICMwMDAwMDA7IHN0cm9rZS13aWR0aDogMC44IiB5PSIzODQuNDgiIHg9Ijk5LjY1NDU0NSIgeGxpbms6aHJlZj0iI20xZWY4ZmNhYTM3Ii8+JiN4YTsgICAgICA8L2c+JiN4YTsgICAgIDwvZz4mI3hhOyAgICAgPGcgaWQ9InRleHRfMSI+JiN4YTsgICAgICAmI3hhOyAgICAgIDxnIHRyYW5zZm9ybT0idHJhbnNsYXRlKDgxLjgwODkyIDM5OS42NTg3NSkgc2NhbGUoMC4wOCAtMC4wOCkiPiYjeGE7ICAgICAgIDxkZWZzPiYjeGE7ICAgICAgICA8cGF0aCB0cmFuc2Zvcm09InNjYWxlKDAuMDE1NjI1KSIgZD0iTSAxMjU5IDQxNDcgJiMxMDtMIDEyNTkgMjM5NCAmIzEwO0wgMjA1MyAyMzk0ICYjMTA7USAyNDk0IDIzOTQgMjczNCAyNjIyICYjMTA7USAyOTc1IDI4NTAgMjk3NSAzMjcyICYjMTA7USAyOTc1IDM2OTEgMjczNCAzOTE5ICYjMTA7USAyNDk0IDQxNDcgMjA1MyA0MTQ3ICYjMTA7TCAxMjU5IDQxNDcgJiMxMDt6JiMxMDtNIDYyOCA0NjY2ICYjMTA7TCAyMDUzIDQ2NjYgJiMxMDtRIDI4MzggNDY2NiAzMjM5IDQzMTEgJiMxMDtRIDM2NDEgMzk1NiAzNjQxIDMyNzIgJiMxMDtRIDM2NDEgMjU4MSAzMjM5IDIyMjggJiMxMDtRIDI4MzggMTg3NSAyMDUzIDE4NzUgJiMxMDtMIDEyNTkgMTg3NSAmIzEwO0wgMTI1OSAwICYjMTA7TCA2MjggMCAmIzEwO0wgNjI4IDQ2NjYgJiMxMDt6IiBpZD0iRGVqYVZ1U2Fucy01MCIvPiYjeGE7ICAgICAgICA8cGF0aCB0cmFuc2Zvcm09InNjYWxlKDAuMDE1NjI1KSIgZD0iTSAyNjMxIDI5NjMgJiMxMDtRIDI1MzQgMzAxOSAyNDIwIDMwNDUgJiMxMDtRIDIzMDYgMzA3MiAyMTY5IDMwNzIgJiMxMDtRIDE2ODEgMzA3MiAxNDIwIDI3NTUgJiMxMDtRIDExNTkgMjQzOCAxMTU5IDE4NDQgJiMxMDtMIDExNTkgMCAmIzEwO0wgNTgxIDAgJiMxMDtMIDU4MSAzNTAwICYjMTA7TCAxMTU5IDM1MDAgJiMxMDtMIDExNTkgMjk1NiAmIzEwO1EgMTM0MSAzMjc1IDE2MzEgMzQyOSAmIzEwO1EgMTkyMiAzNTg0IDIzMzggMzU4NCAmIzEwO1EgMjM5NyAzNTg0IDI0NjkgMzU3NiAmIzEwO1EgMjU0MSAzNTY5IDI2MjggMzU1MyAmIzEwO0wgMjYzMSAyOTYzICYjMTA7eiIgaWQ9IkRlamFWdVNhbnMtNzIiLz4mI3hhOyAgICAgICAgPHBhdGggdHJhbnNmb3JtPSJzY2FsZSgwLjAxNTYyNSkiIGQ9Ik0gMzU5NyAxODk0ICYjMTA7TCAzNTk3IDE2MTMgJiMxMDtMIDk1MyAxNjEzICYjMTA7USA5OTEgMTAxOSAxMzExIDcwOCAmIzEwO1EgMTYzMSAzOTcgMjIwMyAzOTcgJiMxMDtRIDI1MzQgMzk3IDI4NDUgNDc4ICYjMTA7USAzMTU2IDU1OSAzNDYzIDcyMiAmIzEwO0wgMzQ2MyAxNzggJiMxMDtRIDMxNTMgNDcgMjgyOCAtMjIgJiMxMDtRIDI1MDMgLTkxIDIxNjkgLTkxICYjMTA7USAxMzMxIC05MSA4NDIgMzk2ICYjMTA7USAzNTMgODg0IDM1MyAxNzE2ICYjMTA7USAzNTMgMjU3NSA4MTcgMzA3OSAmIzEwO1EgMTI4MSAzNTg0IDIwNjkgMzU4NCAmIzEwO1EgMjc3NSAzNTg0IDMxODYgMzEyOSAmIzEwO1EgMzU5NyAyNjc1IDM1OTcgMTg5NCAmIzEwO3omIzEwO00gMzAyMiAyMDYzICYjMTA7USAzMDE2IDI1MzQgMjc1OCAyODE1ICYjMTA7USAyNTAwIDMwOTcgMjA3NSAzMDk3ICYjMTA7USAxNTk0IDMwOTcgMTMwNSAyODI1ICYjMTA7USAxMDE2IDI1NTMgOTcyIDIwNTkgJiMxMDtMIDMwMjIgMjA2MyAmIzEwO3oiIGlkPSJEZWphVnVTYW5zLTY1Ii8+JiN4YTsgICAgICAgIDxwYXRoIHRyYW5zZm9ybT0ic2NhbGUoMC4wMTU2MjUpIiBkPSJNIDMxMjIgMzM2NiAmIzEwO0wgMzEyMiAyODI4ICYjMTA7USAyODc4IDI5NjMgMjYzMyAzMDMwICYjMTA7USAyMzg4IDMwOTcgMjEzOCAzMDk3ICYjMTA7USAxNTc4IDMwOTcgMTI2OCAyNzQyICYjMTA7USA5NTkgMjM4OCA5NTkgMTc0NyAmIzEwO1EgOTU5IDExMDYgMTI2OCA3NTEgJiMxMDtRIDE1NzggMzk3IDIxMzggMzk3ICYjMTA7USAyMzg4IDM5NyAyNjMzIDQ2NCAmIzEwO1EgMjg3OCA1MzEgMzEyMiA2NjYgJiMxMDtMIDMxMjIgMTM0ICYjMTA7USAyODgxIDIyIDI2MjMgLTM0ICYjMTA7USAyMzY2IC05MSAyMDc1IC05MSAmIzEwO1EgMTI4NCAtOTEgODE4IDQwNiAmIzEwO1EgMzUzIDkwMyAzNTMgMTc0NyAmIzEwO1EgMzUzIDI2MDMgODIzIDMwOTMgJiMxMDtRIDEyOTQgMzU4NCAyMTEzIDM1ODQgJiMxMDtRIDIzNzggMzU4NCAyNjMxIDM1MjkgJiMxMDtRIDI4ODQgMzQ3NSAzMTIyIDMzNjYgJiMxMDt6IiBpZD0iRGVqYVZ1U2Fucy02MyIvPiYjeGE7ICAgICAgICA8cGF0aCB0cmFuc2Zvcm09InNjYWxlKDAuMDE1NjI1KSIgZD0iTSA2MDMgMzUwMCAmIzEwO0wgMTE3OCAzNTAwICYjMTA7TCAxMTc4IDAgJiMxMDtMIDYwMyAwICYjMTA7TCA2MDMgMzUwMCAmIzEwO3omIzEwO00gNjAzIDQ4NjMgJiMxMDtMIDExNzggNDg2MyAmIzEwO0wgMTE3OCA0MTM0ICYjMTA7TCA2MDMgNDEzNCAmIzEwO0wgNjAzIDQ4NjMgJiMxMDt6IiBpZD0iRGVqYVZ1U2Fucy02OSIvPiYjeGE7ICAgICAgICA8cGF0aCB0cmFuc2Zvcm09InNjYWxlKDAuMDE1NjI1KSIgZD0iTSAyODM0IDMzOTcgJiMxMDtMIDI4MzQgMjg1MyAmIzEwO1EgMjU5MSAyOTc4IDIzMjggMzA0MCAmIzEwO1EgMjA2NiAzMTAzIDE3ODQgMzEwMyAmIzEwO1EgMTM1NiAzMTAzIDExNDIgMjk3MiAmIzEwO1EgOTI4IDI4NDEgOTI4IDI1NzggJiMxMDtRIDkyOCAyMzc4IDEwODEgMjI2NCAmIzEwO1EgMTIzNCAyMTUwIDE2OTcgMjA0NyAmIzEwO0wgMTg5NCAyMDAzICYjMTA7USAyNTA2IDE4NzIgMjc2NCAxNjMzICYjMTA7USAzMDIyIDEzOTQgMzAyMiA5NjYgJiMxMDtRIDMwMjIgNDc4IDI2MzYgMTkzICYjMTA7USAyMjUwIC05MSAxNTc1IC05MSAmIzEwO1EgMTI5NCAtOTEgOTg5IC0zNiAmIzEwO1EgNjg0IDE5IDM0NyAxMjggJiMxMDtMIDM0NyA3MjIgJiMxMDtRIDY2NiA1NTYgOTc1IDQ3MyAmIzEwO1EgMTI4NCAzOTEgMTU4OCAzOTEgJiMxMDtRIDE5OTQgMzkxIDIyMTIgNTMwICYjMTA7USAyNDMxIDY2OSAyNDMxIDkyMiAmIzEwO1EgMjQzMSAxMTU2IDIyNzMgMTI4MSAmIzEwO1EgMjExNiAxNDA2IDE1ODEgMTUyMiAmIzEwO0wgMTM4MSAxNTY5ICYjMTA7USA4NDcgMTY4MSA2MDkgMTkxNCAmIzEwO1EgMzcyIDIxNDcgMzcyIDI1NTMgJiMxMDtRIDM3MiAzMDQ3IDcyMiAzMzE1ICYjMTA7USAxMDcyIDM1ODQgMTcxNiAzNTg0ICYjMTA7USAyMDM0IDM1ODQgMjMxNSAzNTM3ICYjMTA7USAyNTk3IDM0OTEgMjgzNCAzMzk3ICYjMTA7eiIgaWQ9IkRlamFWdVNhbnMtNzMiLz4mI3hhOyAgICAgICAgPHBhdGggdHJhbnNmb3JtPSJzY2FsZSgwLjAxNTYyNSkiIGQ9Ik0gMTk1OSAzMDk3ICYjMTA7USAxNDk3IDMwOTcgMTIyOCAyNzM2ICYjMTA7USA5NTkgMjM3NSA5NTkgMTc0NyAmIzEwO1EgOTU5IDExMTkgMTIyNiA3NTggJiMxMDtRIDE0OTQgMzk3IDE5NTkgMzk3ICYjMTA7USAyNDE5IDM5NyAyNjg3IDc1OSAmIzEwO1EgMjk1NiAxMTIyIDI5NTYgMTc0NyAmIzEwO1EgMjk1NiAyMzY5IDI2ODcgMjczMyAmIzEwO1EgMjQxOSAzMDk3IDE5NTkgMzA5NyAmIzEwO3omIzEwO00gMTk1OSAzNTg0ICYjMTA7USAyNzA5IDM1ODQgMzEzNyAzMDk2ICYjMTA7USAzNTY2IDI2MDkgMzU2NiAxNzQ3ICYjMTA7USAzNTY2IDg4OCAzMTM3IDM5OCAmIzEwO1EgMjcwOSAtOTEgMTk1OSAtOTEgJiMxMDtRIDEyMDYgLTkxIDc3OSAzOTggJiMxMDtRIDM1MyA4ODggMzUzIDE3NDcgJiMxMDtRIDM1MyAyNjA5IDc3OSAzMDk2ICYjMTA7USAxMjA2IDM1ODQgMTk1OSAzNTg0ICYjMTA7eiIgaWQ9IkRlamFWdVNhbnMtNmYiLz4mI3hhOyAgICAgICAgPHBhdGggdHJhbnNmb3JtPSJzY2FsZSgwLjAxNTYyNSkiIGQ9Ik0gMzUxMyAyMTEzICYjMTA7TCAzNTEzIDAgJiMxMDtMIDI5MzggMCAmIzEwO0wgMjkzOCAyMDk0ICYjMTA7USAyOTM4IDI1OTEgMjc0NCAyODM3ICYjMTA7USAyNTUwIDMwODQgMjE2MyAzMDg0ICYjMTA7USAxNjk3IDMwODQgMTQyOCAyNzg3ICYjMTA7USAxMTU5IDI0OTEgMTE1OSAxOTc4ICYjMTA7TCAxMTU5IDAgJiMxMDtMIDU4MSAwICYjMTA7TCA1ODEgMzUwMCAmIzEwO0wgMTE1OSAzNTAwICYjMTA7TCAxMTU5IDI5NTYgJiMxMDtRIDEzNjYgMzI3MiAxNjQ1IDM0MjggJiMxMDtRIDE5MjUgMzU4NCAyMjkxIDM1ODQgJiMxMDtRIDI4OTQgMzU4NCAzMjAzIDMyMTEgJiMxMDtRIDM1MTMgMjgzOCAzNTEzIDIxMTMgJiMxMDt6IiBpZD0iRGVqYVZ1U2Fucy02ZSIvPiYjeGE7ICAgICAgIDwvZGVmcz4mI3hhOyAgICAgICA8dXNlIHhsaW5rOmhyZWY9IiNEZWphVnVTYW5zLTUwIi8+JiN4YTsgICAgICAgPHVzZSB4PSI1OC41NTI3MzQiIHhsaW5rOmhyZWY9IiNEZWphVnVTYW5zLTcyIi8+JiN4YTsgICAgICAgPHVzZSB4PSI5Ny40MTYwMTYiIHhsaW5rOmhyZWY9IiNEZWphVnVTYW5zLTY1Ii8+JiN4YTsgICAgICAgPHVzZSB4PSIxNTguOTM5NDUzIiB4bGluazpocmVmPSIjRGVqYVZ1U2Fucy02MyIvPiYjeGE7ICAgICAgIDx1c2UgeD0iMjEzLjkxOTkyMiIgeGxpbms6aHJlZj0iI0RlamFWdVNhbnMtNjkiLz4mI3hhOyAgICAgICA8dXNlIHg9IjI0MS43MDMxMjUiIHhsaW5rOmhyZWY9IiNEZWphVnVTYW5zLTczIi8+JiN4YTsgICAgICAgPHVzZSB4PSIyOTMuODAyNzM0IiB4bGluazpocmVmPSIjRGVqYVZ1U2Fucy02OSIvPiYjeGE7ICAgICAgIDx1c2UgeD0iMzIxLjU4NTkzOCIgeGxpbms6aHJlZj0iI0RlamFWdVNhbnMtNmYiLz4mI3hhOyAgICAgICA8dXNlIHg9IjM4Mi43Njc1NzgiIHhsaW5rOmhyZWY9IiNEZWphVnVTYW5zLTZlIi8+JiN4YTsgICAgICA8L2c+JiN4YTsgICAgIDwvZz4mI3hhOyAgICA8L2c+JiN4YTsgICAgPGcgaWQ9Inh0aWNrXzIiPiYjeGE7ICAgICA8ZyBpZD0ibGluZTJkXzIiPiYjeGE7ICAgICAgPGc+JiN4YTsgICAgICAgPHVzZSBzdHlsZT0ic3Ryb2tlOiAjMDAwMDAwOyBzdHJva2Utd2lkdGg6IDAuOCIgeT0iMzg0LjQ4IiB4PSIyMjEuNCIgeGxpbms6aHJlZj0iI20xZWY4ZmNhYTM3Ii8+JiN4YTsgICAgICA8L2c+JiN4YTsgICAgIDwvZz4mI3hhOyAgICAgPGcgaWQ9InRleHRfMiI+JiN4YTsgICAgICAmI3hhOyAgICAgIDxnIHRyYW5zZm9ybT0idHJhbnNsYXRlKDIwOS40NjYyNSAzOTkuNjU4NzUpIHNjYWxlKDAuMDggLTAuMDgpIj4mI3hhOyAgICAgICA8ZGVmcz4mI3hhOyAgICAgICAgPHBhdGggdHJhbnNmb3JtPSJzY2FsZSgwLjAxNTYyNSkiIGQ9Ik0gMjg0MSAyMTg4ICYjMTA7USAzMDQ0IDIxMTkgMzIzNiAxODk0ICYjMTA7USAzNDI4IDE2NjkgMzYyMiAxMjc1ICYjMTA7TCA0MjYzIDAgJiMxMDtMIDM1ODQgMCAmIzEwO0wgMjk4OCAxMTk3ICYjMTA7USAyNzU2IDE2NjYgMjUzOSAxODE5ICYjMTA7USAyMzIyIDE5NzIgMTk0NyAxOTcyICYjMTA7TCAxMjU5IDE5NzIgJiMxMDtMIDEyNTkgMCAmIzEwO0wgNjI4IDAgJiMxMDtMIDYyOCA0NjY2ICYjMTA7TCAyMDUzIDQ2NjYgJiMxMDtRIDI4NTMgNDY2NiAzMjQ3IDQzMzEgJiMxMDtRIDM2NDEgMzk5NyAzNjQxIDMzMjIgJiMxMDtRIDM2NDEgMjg4MSAzNDM2IDI1OTAgJiMxMDtRIDMyMzEgMjMwMCAyODQxIDIxODggJiMxMDt6JiMxMDtNIDEyNTkgNDE0NyAmIzEwO0wgMTI1OSAyNDkxICYjMTA7TCAyMDUzIDI0OTEgJiMxMDtRIDI1MDkgMjQ5MSAyNzQyIDI3MDIgJiMxMDtRIDI5NzUgMjkxMyAyOTc1IDMzMjIgJiMxMDtRIDI5NzUgMzczMSAyNzQyIDM5MzkgJiMxMDtRIDI1MDkgNDE0NyAyMDUzIDQxNDcgJiMxMDtMIDEyNTkgNDE0NyAmIzEwO3oiIGlkPSJEZWphVnVTYW5zLTUyIi8+JiN4YTsgICAgICAgIDxwYXRoIHRyYW5zZm9ybT0ic2NhbGUoMC4wMTU2MjUpIiBkPSJNIDIxOTQgMTc1OSAmIzEwO1EgMTQ5NyAxNzU5IDEyMjggMTYwMCAmIzEwO1EgOTU5IDE0NDEgOTU5IDEwNTYgJiMxMDtRIDk1OSA3NTAgMTE2MSA1NzAgJiMxMDtRIDEzNjMgMzkxIDE3MDkgMzkxICYjMTA7USAyMTg4IDM5MSAyNDc3IDczMCAmIzEwO1EgMjc2NiAxMDY5IDI3NjYgMTYzMSAmIzEwO0wgMjc2NiAxNzU5ICYjMTA7TCAyMTk0IDE3NTkgJiMxMDt6JiMxMDtNIDMzNDEgMTk5NyAmIzEwO0wgMzM0MSAwICYjMTA7TCAyNzY2IDAgJiMxMDtMIDI3NjYgNTMxICYjMTA7USAyNTY5IDIxMyAyMjc1IDYxICYjMTA7USAxOTgxIC05MSAxNTU2IC05MSAmIzEwO1EgMTAxOSAtOTEgNzAxIDIxMSAmIzEwO1EgMzg0IDUxMyAzODQgMTAxOSAmIzEwO1EgMzg0IDE2MDkgNzc5IDE5MDkgJiMxMDtRIDExNzUgMjIwOSAxOTU5IDIyMDkgJiMxMDtMIDI3NjYgMjIwOSAmIzEwO0wgMjc2NiAyMjY2ICYjMTA7USAyNzY2IDI2NjMgMjUwNSAyODgwICYjMTA7USAyMjQ0IDMwOTcgMTc3MiAzMDk3ICYjMTA7USAxNDcyIDMwOTcgMTE4NyAzMDI1ICYjMTA7USA5MDMgMjk1MyA2NDEgMjgwOSAmIzEwO0wgNjQxIDMzNDEgJiMxMDtRIDk1NiAzNDYzIDEyNTMgMzUyMyAmIzEwO1EgMTU1MCAzNTg0IDE4MzEgMzU4NCAmIzEwO1EgMjU5MSAzNTg0IDI5NjYgMzE5MCAmIzEwO1EgMzM0MSAyNzk3IDMzNDEgMTk5NyAmIzEwO3oiIGlkPSJEZWphVnVTYW5zLTYxIi8+JiN4YTsgICAgICAgIDxwYXRoIHRyYW5zZm9ybT0ic2NhbGUoMC4wMTU2MjUpIiBkPSJNIDYwMyA0ODYzICYjMTA7TCAxMTc4IDQ4NjMgJiMxMDtMIDExNzggMCAmIzEwO0wgNjAzIDAgJiMxMDtMIDYwMyA0ODYzICYjMTA7eiIgaWQ9IkRlamFWdVNhbnMtNmMiLz4mI3hhOyAgICAgICA8L2RlZnM+JiN4YTsgICAgICAgPHVzZSB4bGluazpocmVmPSIjRGVqYVZ1U2Fucy01MiIvPiYjeGE7ICAgICAgIDx1c2UgeD0iNjQuOTgyNDIyIiB4bGluazpocmVmPSIjRGVqYVZ1U2Fucy02NSIvPiYjeGE7ICAgICAgIDx1c2UgeD0iMTI2LjUwNTg1OSIgeGxpbms6aHJlZj0iI0RlamFWdVNhbnMtNjMiLz4mI3hhOyAgICAgICA8dXNlIHg9IjE4MS40ODYzMjgiIHhsaW5rOmhyZWY9IiNEZWphVnVTYW5zLTYxIi8+JiN4YTsgICAgICAgPHVzZSB4PSIyNDIuNzY1NjI1IiB4bGluazpocmVmPSIjRGVqYVZ1U2Fucy02YyIvPiYjeGE7ICAgICAgIDx1c2UgeD0iMjcwLjU0ODgyOCIgeGxpbms6aHJlZj0iI0RlamFWdVNhbnMtNmMiLz4mI3hhOyAgICAgIDwvZz4mI3hhOyAgICAgPC9nPiYjeGE7ICAgIDwvZz4mI3hhOyAgICA8ZyBpZD0ieHRpY2tfMyI+JiN4YTsgICAgIDxnIGlkPSJsaW5lMmRfMyI+JiN4YTsgICAgICA8Zz4mI3hhOyAgICAgICA8dXNlIHN0eWxlPSJzdHJva2U6ICMwMDAwMDA7IHN0cm9rZS13aWR0aDogMC44IiB5PSIzODQuNDgiIHg9IjM0My4xNDU0NTUiIHhsaW5rOmhyZWY9IiNtMWVmOGZjYWEzNyIvPiYjeGE7ICAgICAgPC9nPiYjeGE7ICAgICA8L2c+JiN4YTsgICAgIDxnIGlkPSJ0ZXh0XzMiPiYjeGE7ICAgICAgJiN4YTsgICAgICA8ZyB0cmFuc2Zvcm09InRyYW5zbGF0ZSgzMjUuODI2NzA1IDM5OS42NTg3NSkgc2NhbGUoMC4wOCAtMC4wOCkiPiYjeGE7ICAgICAgIDxkZWZzPiYjeGE7ICAgICAgICA8cGF0aCB0cmFuc2Zvcm09InNjYWxlKDAuMDE1NjI1KSIgZD0iTSA2MjggNDY2NiAmIzEwO0wgMzMwOSA0NjY2ICYjMTA7TCAzMzA5IDQxMzQgJiMxMDtMIDEyNTkgNDEzNCAmIzEwO0wgMTI1OSAyNzU5ICYjMTA7TCAzMTA5IDI3NTkgJiMxMDtMIDMxMDkgMjIyOCAmIzEwO0wgMTI1OSAyMjI4ICYjMTA7TCAxMjU5IDAgJiMxMDtMIDYyOCAwICYjMTA7TCA2MjggNDY2NiAmIzEwO3oiIGlkPSJEZWphVnVTYW5zLTQ2Ii8+JiN4YTsgICAgICAgIDxwYXRoIHRyYW5zZm9ybT0ic2NhbGUoMC4wMTU2MjUpIiBkPSJNIDc5NCA1MzEgJiMxMDtMIDE4MjUgNTMxICYjMTA7TCAxODI1IDQwOTEgJiMxMDtMIDcwMyAzODY2ICYjMTA7TCA3MDMgNDQ0MSAmIzEwO0wgMTgxOSA0NjY2ICYjMTA7TCAyNDUwIDQ2NjYgJiMxMDtMIDI0NTAgNTMxICYjMTA7TCAzNDgxIDUzMSAmIzEwO0wgMzQ4MSAwICYjMTA7TCA3OTQgMCAmIzEwO0wgNzk0IDUzMSAmIzEwO3oiIGlkPSJEZWphVnVTYW5zLTMxIi8+JiN4YTsgICAgICAgIDxwYXRoIHRyYW5zZm9ybT0ic2NhbGUoMC4wMTU2MjUpIiBpZD0iRGVqYVZ1U2Fucy0yMCIvPiYjeGE7ICAgICAgICA8cGF0aCB0cmFuc2Zvcm09InNjYWxlKDAuMDE1NjI1KSIgZD0iTSAzNDI1IDQ1MTMgJiMxMDtMIDM0MjUgMzg5NyAmIzEwO1EgMzA2NiA0MDY5IDI3NDcgNDE1MyAmIzEwO1EgMjQyOCA0MjM4IDIxMzEgNDIzOCAmIzEwO1EgMTYxNiA0MjM4IDEzMzYgNDAzOCAmIzEwO1EgMTA1NiAzODM4IDEwNTYgMzQ2OSAmIzEwO1EgMTA1NiAzMTU5IDEyNDIgMzAwMSAmIzEwO1EgMTQyOCAyODQ0IDE5NDcgMjc0NyAmIzEwO0wgMjMyOCAyNjY5ICYjMTA7USAzMDM0IDI1MzQgMzM3MCAyMTk1ICYjMTA7USAzNzA2IDE4NTYgMzcwNiAxMjg4ICYjMTA7USAzNzA2IDYwOSAzMjUxIDI1OSAmIzEwO1EgMjc5NyAtOTEgMTkxOSAtOTEgJiMxMDtRIDE1ODggLTkxIDEyMTQgLTE2ICYjMTA7USA4NDEgNTkgNDQxIDIwNiAmIzEwO0wgNDQxIDg1NiAmIzEwO1EgODI1IDY0MSAxMTk0IDUzMSAmIzEwO1EgMTU2MyA0MjIgMTkxOSA0MjIgJiMxMDtRIDI0NTkgNDIyIDI3NTMgNjM0ICYjMTA7USAzMDQ3IDg0NyAzMDQ3IDEyNDEgJiMxMDtRIDMwNDcgMTU4NCAyODM2IDE3NzggJiMxMDtRIDI2MjUgMTk3MiAyMTQ0IDIwNjkgJiMxMDtMIDE3NTkgMjE0NCAmIzEwO1EgMTA1MyAyMjg0IDczNyAyNTg0ICYjMTA7USA0MjIgMjg4NCA0MjIgMzQxOSAmIzEwO1EgNDIyIDQwMzggODU4IDQzOTQgJiMxMDtRIDEyOTQgNDc1MCAyMDU5IDQ3NTAgJiMxMDtRIDIzODggNDc1MCAyNzI4IDQ2OTAgJiMxMDtRIDMwNjkgNDYzMSAzNDI1IDQ1MTMgJiMxMDt6IiBpZD0iRGVqYVZ1U2Fucy01MyIvPiYjeGE7ICAgICAgIDwvZGVmcz4mI3hhOyAgICAgICA8dXNlIHhsaW5rOmhyZWY9IiNEZWphVnVTYW5zLTQ2Ii8+JiN4YTsgICAgICAgPHVzZSB4PSI1Ny41MTk1MzEiIHhsaW5rOmhyZWY9IiNEZWphVnVTYW5zLTMxIi8+JiN4YTsgICAgICAgPHVzZSB4PSIxMjEuMTQyNTc4IiB4bGluazpocmVmPSIjRGVqYVZ1U2Fucy0yMCIvPiYjeGE7ICAgICAgIDx1c2UgeD0iMTUyLjkyOTY4OCIgeGxpbms6aHJlZj0iI0RlamFWdVNhbnMtNTMiLz4mI3hhOyAgICAgICA8dXNlIHg9IjIxNi40MDYyNSIgeGxpbms6aHJlZj0iI0RlamFWdVNhbnMtNjMiLz4mI3hhOyAgICAgICA8dXNlIHg9IjI3MS4zODY3MTkiIHhsaW5rOmhyZWY9IiNEZWphVnVTYW5zLTZmIi8+JiN4YTsgICAgICAgPHVzZSB4PSIzMzIuNTY4MzU5IiB4bGluazpocmVmPSIjRGVqYVZ1U2Fucy03MiIvPiYjeGE7ICAgICAgIDx1c2UgeD0iMzcxLjQzMTY0MSIgeGxpbms6aHJlZj0iI0RlamFWdVNhbnMtNjUiLz4mI3hhOyAgICAgIDwvZz4mI3hhOyAgICAgPC9nPiYjeGE7ICAgIDwvZz4mI3hhOyAgIDwvZz4mI3hhOyAgIDxnIGlkPSJtYXRwbG90bGliLmF4aXNfMiI+JiN4YTsgICAgPGcgaWQ9Inl0aWNrXzEiPiYjeGE7ICAgICA8ZyBpZD0ibGluZTJkXzQiPiYjeGE7ICAgICAgPGRlZnM+JiN4YTsgICAgICAgPHBhdGggc3R5bGU9InN0cm9rZTogIzAwMDAwMDsgc3Ryb2tlLXdpZHRoOiAwLjgiIGQ9Ik0gMCAwICYjMTA7TCAtMy41IDAiIGlkPSJtY2ExMjBjOGM1YSIvPiYjeGE7ICAgICAgPC9kZWZzPiYjeGE7ICAgICAgPGc+JiN4YTsgICAgICAgPHVzZSBzdHlsZT0ic3Ryb2tlOiAjMDAwMDAwOyBzdHJva2Utd2lkdGg6IDAuOCIgeT0iMzg0LjQ4IiB4PSI1NCIgeGxpbms6aHJlZj0iI21jYTEyMGM4YzVhIi8+JiN4YTsgICAgICA8L2c+JiN4YTsgICAgIDwvZz4mI3hhOyAgICAgPGcgaWQ9InRleHRfNCI+JiN4YTsgICAgICAmI3hhOyAgICAgIDxnIHRyYW5zZm9ybT0idHJhbnNsYXRlKDMyLjE3NzUgMzg3LjUxOTM3NSkgc2NhbGUoMC4wOCAtMC4wOCkiPiYjeGE7ICAgICAgIDxkZWZzPiYjeGE7ICAgICAgICA8cGF0aCB0cmFuc2Zvcm09InNjYWxlKDAuMDE1NjI1KSIgZD0iTSAyMDM0IDQyNTAgJiMxMDtRIDE1NDcgNDI1MCAxMzAxIDM3NzAgJiMxMDtRIDEwNTYgMzI5MSAxMDU2IDIzMjggJiMxMDtRIDEwNTYgMTM2OSAxMzAxIDg4OSAmIzEwO1EgMTU0NyA0MDkgMjAzNCA0MDkgJiMxMDtRIDI1MjUgNDA5IDI3NzAgODg5ICYjMTA7USAzMDE2IDEzNjkgMzAxNiAyMzI4ICYjMTA7USAzMDE2IDMyOTEgMjc3MCAzNzcwICYjMTA7USAyNTI1IDQyNTAgMjAzNCA0MjUwICYjMTA7eiYjMTA7TSAyMDM0IDQ3NTAgJiMxMDtRIDI4MTkgNDc1MCAzMjMzIDQxMjkgJiMxMDtRIDM2NDcgMzUwOSAzNjQ3IDIzMjggJiMxMDtRIDM2NDcgMTE1MCAzMjMzIDUyOSAmIzEwO1EgMjgxOSAtOTEgMjAzNCAtOTEgJiMxMDtRIDEyNTAgLTkxIDgzNiA1MjkgJiMxMDtRIDQyMiAxMTUwIDQyMiAyMzI4ICYjMTA7USA0MjIgMzUwOSA4MzYgNDEyOSAmIzEwO1EgMTI1MCA0NzUwIDIwMzQgNDc1MCAmIzEwO3oiIGlkPSJEZWphVnVTYW5zLTMwIi8+JiN4YTsgICAgICAgIDxwYXRoIHRyYW5zZm9ybT0ic2NhbGUoMC4wMTU2MjUpIiBkPSJNIDY4NCA3OTQgJiMxMDtMIDEzNDQgNzk0ICYjMTA7TCAxMzQ0IDAgJiMxMDtMIDY4NCAwICYjMTA7TCA2ODQgNzk0ICYjMTA7eiIgaWQ9IkRlamFWdVNhbnMtMmUiLz4mI3hhOyAgICAgICA8L2RlZnM+JiN4YTsgICAgICAgPHVzZSB4bGluazpocmVmPSIjRGVqYVZ1U2Fucy0zMCIvPiYjeGE7ICAgICAgIDx1c2UgeD0iNjMuNjIzMDQ3IiB4bGluazpocmVmPSIjRGVqYVZ1U2Fucy0yZSIvPiYjeGE7ICAgICAgIDx1c2UgeD0iOTUuNDEwMTU2IiB4bGluazpocmVmPSIjRGVqYVZ1U2Fucy0zMCIvPiYjeGE7ICAgICAgPC9nPiYjeGE7ICAgICA8L2c+JiN4YTsgICAgPC9nPiYjeGE7ICAgIDxnIGlkPSJ5dGlja18yIj4mI3hhOyAgICAgPGcgaWQ9ImxpbmUyZF81Ij4mI3hhOyAgICAgIDxnPiYjeGE7ICAgICAgIDx1c2Ugc3R5bGU9InN0cm9rZTogIzAwMDAwMDsgc3Ryb2tlLXdpZHRoOiAwLjgiIHk9IjMxNy45NTIiIHg9IjU0IiB4bGluazpocmVmPSIjbWNhMTIwYzhjNWEiLz4mI3hhOyAgICAgIDwvZz4mI3hhOyAgICAgPC9nPiYjeGE7ICAgICA8ZyBpZD0idGV4dF81Ij4mI3hhOyAgICAgICYjeGE7ICAgICAgPGcgdHJhbnNmb3JtPSJ0cmFuc2xhdGUoMzIuMTc3NSAzMjAuOTkxMzc1KSBzY2FsZSgwLjA4IC0wLjA4KSI+JiN4YTsgICAgICAgPGRlZnM+JiN4YTsgICAgICAgIDxwYXRoIHRyYW5zZm9ybT0ic2NhbGUoMC4wMTU2MjUpIiBkPSJNIDEyMjggNTMxICYjMTA7TCAzNDMxIDUzMSAmIzEwO0wgMzQzMSAwICYjMTA7TCA0NjkgMCAmIzEwO0wgNDY5IDUzMSAmIzEwO1EgODI4IDkwMyAxNDQ4IDE1MjkgJiMxMDtRIDIwNjkgMjE1NiAyMjI4IDIzMzggJiMxMDtRIDI1MzEgMjY3OCAyNjUxIDI5MTQgJiMxMDtRIDI3NzIgMzE1MCAyNzcyIDMzNzggJiMxMDtRIDI3NzIgMzc1MCAyNTExIDM5ODQgJiMxMDtRIDIyNTAgNDIxOSAxODMxIDQyMTkgJiMxMDtRIDE1MzQgNDIxOSAxMjA0IDQxMTYgJiMxMDtRIDg3NSA0MDEzIDUwMCAzODAzICYjMTA7TCA1MDAgNDQ0MSAmIzEwO1EgODgxIDQ1OTQgMTIxMiA0NjcyICYjMTA7USAxNTQ0IDQ3NTAgMTgxOSA0NzUwICYjMTA7USAyNTQ0IDQ3NTAgMjk3NSA0Mzg3ICYjMTA7USAzNDA2IDQwMjUgMzQwNiAzNDE5ICYjMTA7USAzNDA2IDMxMzEgMzI5OCAyODczICYjMTA7USAzMTkxIDI2MTYgMjkwNiAyMjY2ICYjMTA7USAyODI4IDIxNzUgMjQwOSAxNzQyICYjMTA7USAxOTkxIDEzMDkgMTIyOCA1MzEgJiMxMDt6IiBpZD0iRGVqYVZ1U2Fucy0zMiIvPiYjeGE7ICAgICAgIDwvZGVmcz4mI3hhOyAgICAgICA8dXNlIHhsaW5rOmhyZWY9IiNEZWphVnVTYW5zLTMwIi8+JiN4YTsgICAgICAgPHVzZSB4PSI2My42MjMwNDciIHhsaW5rOmhyZWY9IiNEZWphVnVTYW5zLTJlIi8+JiN4YTsgICAgICAgPHVzZSB4PSI5NS40MTAxNTYiIHhsaW5rOmhyZWY9IiNEZWphVnVTYW5zLTMyIi8+JiN4YTsgICAgICA8L2c+JiN4YTsgICAgIDwvZz4mI3hhOyAgICA8L2c+JiN4YTsgICAgPGcgaWQ9Inl0aWNrXzMiPiYjeGE7ICAgICA8ZyBpZD0ibGluZTJkXzYiPiYjeGE7ICAgICAgPGc+JiN4YTsgICAgICAgPHVzZSBzdHlsZT0ic3Ryb2tlOiAjMDAwMDAwOyBzdHJva2Utd2lkdGg6IDAuOCIgeT0iMjUxLjQyNCIgeD0iNTQiIHhsaW5rOmhyZWY9IiNtY2ExMjBjOGM1YSIvPiYjeGE7ICAgICAgPC9nPiYjeGE7ICAgICA8L2c+JiN4YTsgICAgIDxnIGlkPSJ0ZXh0XzYiPiYjeGE7ICAgICAgJiN4YTsgICAgICA8ZyB0cmFuc2Zvcm09InRyYW5zbGF0ZSgzMi4xNzc1IDI1NC40NjMzNzUpIHNjYWxlKDAuMDggLTAuMDgpIj4mI3hhOyAgICAgICA8ZGVmcz4mI3hhOyAgICAgICAgPHBhdGggdHJhbnNmb3JtPSJzY2FsZSgwLjAxNTYyNSkiIGQ9Ik0gMjQxOSA0MTE2ICYjMTA7TCA4MjUgMTYyNSAmIzEwO0wgMjQxOSAxNjI1ICYjMTA7TCAyNDE5IDQxMTYgJiMxMDt6JiMxMDtNIDIyNTMgNDY2NiAmIzEwO0wgMzA0NyA0NjY2ICYjMTA7TCAzMDQ3IDE2MjUgJiMxMDtMIDM3MTMgMTYyNSAmIzEwO0wgMzcxMyAxMTAwICYjMTA7TCAzMDQ3IDExMDAgJiMxMDtMIDMwNDcgMCAmIzEwO0wgMjQxOSAwICYjMTA7TCAyNDE5IDExMDAgJiMxMDtMIDMxMyAxMTAwICYjMTA7TCAzMTMgMTcwOSAmIzEwO0wgMjI1MyA0NjY2ICYjMTA7eiIgaWQ9IkRlamFWdVNhbnMtMzQiLz4mI3hhOyAgICAgICA8L2RlZnM+JiN4YTsgICAgICAgPHVzZSB4bGluazpocmVmPSIjRGVqYVZ1U2Fucy0zMCIvPiYjeGE7ICAgICAgIDx1c2UgeD0iNjMuNjIzMDQ3IiB4bGluazpocmVmPSIjRGVqYVZ1U2Fucy0yZSIvPiYjeGE7ICAgICAgIDx1c2UgeD0iOTUuNDEwMTU2IiB4bGluazpocmVmPSIjRGVqYVZ1U2Fucy0zNCIvPiYjeGE7ICAgICAgPC9nPiYjeGE7ICAgICA8L2c+JiN4YTsgICAgPC9nPiYjeGE7ICAgIDxnIGlkPSJ5dGlja180Ij4mI3hhOyAgICAgPGcgaWQ9ImxpbmUyZF83Ij4mI3hhOyAgICAgIDxnPiYjeGE7ICAgICAgIDx1c2Ugc3R5bGU9InN0cm9rZTogIzAwMDAwMDsgc3Ryb2tlLXdpZHRoOiAwLjgiIHk9IjE4NC44OTYiIHg9IjU0IiB4bGluazpocmVmPSIjbWNhMTIwYzhjNWEiLz4mI3hhOyAgICAgIDwvZz4mI3hhOyAgICAgPC9nPiYjeGE7ICAgICA8ZyBpZD0idGV4dF83Ij4mI3hhOyAgICAgICYjeGE7ICAgICAgPGcgdHJhbnNmb3JtPSJ0cmFuc2xhdGUoMzIuMTc3NSAxODcuOTM1Mzc1KSBzY2FsZSgwLjA4IC0wLjA4KSI+JiN4YTsgICAgICAgPGRlZnM+JiN4YTsgICAgICAgIDxwYXRoIHRyYW5zZm9ybT0ic2NhbGUoMC4wMTU2MjUpIiBkPSJNIDIxMTMgMjU4NCAmIzEwO1EgMTY4OCAyNTg0IDE0MzkgMjI5MyAmIzEwO1EgMTE5MSAyMDAzIDExOTEgMTQ5NyAmIzEwO1EgMTE5MSA5OTQgMTQzOSA3MDEgJiMxMDtRIDE2ODggNDA5IDIxMTMgNDA5ICYjMTA7USAyNTM4IDQwOSAyNzg2IDcwMSAmIzEwO1EgMzAzNCA5OTQgMzAzNCAxNDk3ICYjMTA7USAzMDM0IDIwMDMgMjc4NiAyMjkzICYjMTA7USAyNTM4IDI1ODQgMjExMyAyNTg0ICYjMTA7eiYjMTA7TSAzMzY2IDQ1NjMgJiMxMDtMIDMzNjYgMzk4OCAmIzEwO1EgMzEyOCA0MTAwIDI4ODYgNDE1OSAmIzEwO1EgMjY0NCA0MjE5IDI0MDYgNDIxOSAmIzEwO1EgMTc4MSA0MjE5IDE0NTEgMzc5NyAmIzEwO1EgMTEyMiAzMzc1IDEwNzUgMjUyMiAmIzEwO1EgMTI1OSAyNzk0IDE1MzcgMjkzOSAmIzEwO1EgMTgxNiAzMDg0IDIxNTAgMzA4NCAmIzEwO1EgMjg1MyAzMDg0IDMyNjEgMjY1NyAmIzEwO1EgMzY2OSAyMjMxIDM2NjkgMTQ5NyAmIzEwO1EgMzY2OSA3NzggMzI0NCAzNDMgJiMxMDtRIDI4MTkgLTkxIDIxMTMgLTkxICYjMTA7USAxMzAzIC05MSA4NzUgNTI5ICYjMTA7USA0NDcgMTE1MCA0NDcgMjMyOCAmIzEwO1EgNDQ3IDM0MzQgOTcyIDQwOTIgJiMxMDtRIDE0OTcgNDc1MCAyMzgxIDQ3NTAgJiMxMDtRIDI2MTkgNDc1MCAyODYxIDQ3MDMgJiMxMDtRIDMxMDMgNDY1NiAzMzY2IDQ1NjMgJiMxMDt6IiBpZD0iRGVqYVZ1U2Fucy0zNiIvPiYjeGE7ICAgICAgIDwvZGVmcz4mI3hhOyAgICAgICA8dXNlIHhsaW5rOmhyZWY9IiNEZWphVnVTYW5zLTMwIi8+JiN4YTsgICAgICAgPHVzZSB4PSI2My42MjMwNDciIHhsaW5rOmhyZWY9IiNEZWphVnVTYW5zLTJlIi8+JiN4YTsgICAgICAgPHVzZSB4PSI5NS40MTAxNTYiIHhsaW5rOmhyZWY9IiNEZWphVnVTYW5zLTM2Ii8+JiN4YTsgICAgICA8L2c+JiN4YTsgICAgIDwvZz4mI3hhOyAgICA8L2c+JiN4YTsgICAgPGcgaWQ9Inl0aWNrXzUiPiYjeGE7ICAgICA8ZyBpZD0ibGluZTJkXzgiPiYjeGE7ICAgICAgPGc+JiN4YTsgICAgICAgPHVzZSBzdHlsZT0ic3Ryb2tlOiAjMDAwMDAwOyBzdHJva2Utd2lkdGg6IDAuOCIgeT0iMTE4LjM2OCIgeD0iNTQiIHhsaW5rOmhyZWY9IiNtY2ExMjBjOGM1YSIvPiYjeGE7ICAgICAgPC9nPiYjeGE7ICAgICA8L2c+JiN4YTsgICAgIDxnIGlkPSJ0ZXh0XzgiPiYjeGE7ICAgICAgJiN4YTsgICAgICA8ZyB0cmFuc2Zvcm09InRyYW5zbGF0ZSgzMi4xNzc1IDEyMS40MDczNzUpIHNjYWxlKDAuMDggLTAuMDgpIj4mI3hhOyAgICAgICA8ZGVmcz4mI3hhOyAgICAgICAgPHBhdGggdHJhbnNmb3JtPSJzY2FsZSgwLjAxNTYyNSkiIGQ9Ik0gMjAzNCAyMjE2ICYjMTA7USAxNTg0IDIyMTYgMTMyNiAxOTc1ICYjMTA7USAxMDY5IDE3MzQgMTA2OSAxMzEzICYjMTA7USAxMDY5IDg5MSAxMzI2IDY1MCAmIzEwO1EgMTU4NCA0MDkgMjAzNCA0MDkgJiMxMDtRIDI0ODQgNDA5IDI3NDMgNjUxICYjMTA7USAzMDAzIDg5NCAzMDAzIDEzMTMgJiMxMDtRIDMwMDMgMTczNCAyNzQ1IDE5NzUgJiMxMDtRIDI0ODggMjIxNiAyMDM0IDIyMTYgJiMxMDt6JiMxMDtNIDE0MDMgMjQ4NCAmIzEwO1EgOTk3IDI1ODQgNzcwIDI4NjIgJiMxMDtRIDU0NCAzMTQxIDU0NCAzNTQxICYjMTA7USA1NDQgNDEwMCA5NDIgNDQyNSAmIzEwO1EgMTM0MSA0NzUwIDIwMzQgNDc1MCAmIzEwO1EgMjczMSA0NzUwIDMxMjggNDQyNSAmIzEwO1EgMzUyNSA0MTAwIDM1MjUgMzU0MSAmIzEwO1EgMzUyNSAzMTQxIDMyOTggMjg2MiAmIzEwO1EgMzA3MiAyNTg0IDI2NjkgMjQ4NCAmIzEwO1EgMzEyNSAyMzc4IDMzNzkgMjA2OCAmIzEwO1EgMzYzNCAxNzU5IDM2MzQgMTMxMyAmIzEwO1EgMzYzNCA2MzQgMzIyMCAyNzEgJiMxMDtRIDI4MDYgLTkxIDIwMzQgLTkxICYjMTA7USAxMjYzIC05MSA4NDggMjcxICYjMTA7USA0MzQgNjM0IDQzNCAxMzEzICYjMTA7USA0MzQgMTc1OSA2OTAgMjA2OCAmIzEwO1EgOTQ3IDIzNzggMTQwMyAyNDg0ICYjMTA7eiYjMTA7TSAxMTcyIDM0ODEgJiMxMDtRIDExNzIgMzExOSAxMzk4IDI5MTYgJiMxMDtRIDE2MjUgMjcxMyAyMDM0IDI3MTMgJiMxMDtRIDI0NDEgMjcxMyAyNjcwIDI5MTYgJiMxMDtRIDI5MDAgMzExOSAyOTAwIDM0ODEgJiMxMDtRIDI5MDAgMzg0NCAyNjcwIDQwNDcgJiMxMDtRIDI0NDEgNDI1MCAyMDM0IDQyNTAgJiMxMDtRIDE2MjUgNDI1MCAxMzk4IDQwNDcgJiMxMDtRIDExNzIgMzg0NCAxMTcyIDM0ODEgJiMxMDt6IiBpZD0iRGVqYVZ1U2Fucy0zOCIvPiYjeGE7ICAgICAgIDwvZGVmcz4mI3hhOyAgICAgICA8dXNlIHhsaW5rOmhyZWY9IiNEZWphVnVTYW5zLTMwIi8+JiN4YTsgICAgICAgPHVzZSB4PSI2My42MjMwNDciIHhsaW5rOmhyZWY9IiNEZWphVnVTYW5zLTJlIi8+JiN4YTsgICAgICAgPHVzZSB4PSI5NS40MTAxNTYiIHhsaW5rOmhyZWY9IiNEZWphVnVTYW5zLTM4Ii8+JiN4YTsgICAgICA8L2c+JiN4YTsgICAgIDwvZz4mI3hhOyAgICA8L2c+JiN4YTsgICAgPGcgaWQ9Inl0aWNrXzYiPiYjeGE7ICAgICA8ZyBpZD0ibGluZTJkXzkiPiYjeGE7ICAgICAgPGc+JiN4YTsgICAgICAgPHVzZSBzdHlsZT0ic3Ryb2tlOiAjMDAwMDAwOyBzdHJva2Utd2lkdGg6IDAuOCIgeT0iNTEuODQiIHg9IjU0IiB4bGluazpocmVmPSIjbWNhMTIwYzhjNWEiLz4mI3hhOyAgICAgIDwvZz4mI3hhOyAgICAgPC9nPiYjeGE7ICAgICA8ZyBpZD0idGV4dF85Ij4mI3hhOyAgICAgICYjeGE7ICAgICAgPGcgdHJhbnNmb3JtPSJ0cmFuc2xhdGUoMzIuMTc3NSA1NC44NzkzNzUpIHNjYWxlKDAuMDggLTAuMDgpIj4mI3hhOyAgICAgICA8dXNlIHhsaW5rOmhyZWY9IiNEZWphVnVTYW5zLTMxIi8+JiN4YTsgICAgICAgPHVzZSB4PSI2My42MjMwNDciIHhsaW5rOmhyZWY9IiNEZWphVnVTYW5zLTJlIi8+JiN4YTsgICAgICAgPHVzZSB4PSI5NS40MTAxNTYiIHhsaW5rOmhyZWY9IiNEZWphVnVTYW5zLTMwIi8+JiN4YTsgICAgICA8L2c+JiN4YTsgICAgIDwvZz4mI3hhOyAgICA8L2c+JiN4YTsgICAgPGcgaWQ9InRleHRfMTAiPiYjeGE7ICAgICAmI3hhOyAgICAgPGcgdHJhbnNmb3JtPSJ0cmFuc2xhdGUoMjYuMzQ3Mzc1IDI0Mi45MDc5MzcpIHJvdGF0ZSgtOTApIHNjYWxlKDAuMDg4IC0wLjA4OCkiPiYjeGE7ICAgICAgPGRlZnM+JiN4YTsgICAgICAgPHBhdGggdHJhbnNmb3JtPSJzY2FsZSgwLjAxNTYyNSkiIGQ9Ik0gMTE3MiA0NDk0ICYjMTA7TCAxMTcyIDM1MDAgJiMxMDtMIDIzNTYgMzUwMCAmIzEwO0wgMjM1NiAzMDUzICYjMTA7TCAxMTcyIDMwNTMgJiMxMDtMIDExNzIgMTE1MyAmIzEwO1EgMTE3MiA3MjUgMTI4OSA2MDMgJiMxMDtRIDE0MDYgNDgxIDE3NjYgNDgxICYjMTA7TCAyMzU2IDQ4MSAmIzEwO0wgMjM1NiAwICYjMTA7TCAxNzY2IDAgJiMxMDtRIDExMDAgMCA4NDcgMjQ4ICYjMTA7USA1OTQgNDk3IDU5NCAxMTUzICYjMTA7TCA1OTQgMzA1MyAmIzEwO0wgMTcyIDMwNTMgJiMxMDtMIDE3MiAzNTAwICYjMTA7TCA1OTQgMzUwMCAmIzEwO0wgNTk0IDQ0OTQgJiMxMDtMIDExNzIgNDQ5NCAmIzEwO3oiIGlkPSJEZWphVnVTYW5zLTc0Ii8+JiN4YTsgICAgICAgPHBhdGggdHJhbnNmb3JtPSJzY2FsZSgwLjAxNTYyNSkiIGQ9Ik0gMjkwNiAxNzkxICYjMTA7USAyOTA2IDI0MTYgMjY0OCAyNzU5ICYjMTA7USAyMzkxIDMxMDMgMTkyNSAzMTAzICYjMTA7USAxNDYzIDMxMDMgMTIwNSAyNzU5ICYjMTA7USA5NDcgMjQxNiA5NDcgMTc5MSAmIzEwO1EgOTQ3IDExNjkgMTIwNSA4MjUgJiMxMDtRIDE0NjMgNDgxIDE5MjUgNDgxICYjMTA7USAyMzkxIDQ4MSAyNjQ4IDgyNSAmIzEwO1EgMjkwNiAxMTY5IDI5MDYgMTc5MSAmIzEwO3omIzEwO00gMzQ4MSA0MzQgJiMxMDtRIDM0ODEgLTQ1OSAzMDg0IC04OTUgJiMxMDtRIDI2ODggLTEzMzEgMTg2OSAtMTMzMSAmIzEwO1EgMTU2NiAtMTMzMSAxMjk3IC0xMjg2ICYjMTA7USAxMDI4IC0xMjQxIDc3NSAtMTE0NyAmIzEwO0wgNzc1IC01ODggJiMxMDtRIDEwMjggLTcyNSAxMjc1IC03OTAgJiMxMDtRIDE1MjIgLTg1NiAxNzc4IC04NTYgJiMxMDtRIDIzNDQgLTg1NiAyNjI1IC01NjEgJiMxMDtRIDI5MDYgLTI2NiAyOTA2IDMzMSAmIzEwO0wgMjkwNiA2MTYgJiMxMDtRIDI3MjggMzA2IDI0NTAgMTUzICYjMTA7USAyMTcyIDAgMTc4NCAwICYjMTA7USAxMTQxIDAgNzQ3IDQ5MCAmIzEwO1EgMzUzIDk4MSAzNTMgMTc5MSAmIzEwO1EgMzUzIDI2MDMgNzQ3IDMwOTMgJiMxMDtRIDExNDEgMzU4NCAxNzg0IDM1ODQgJiMxMDtRIDIxNzIgMzU4NCAyNDUwIDM0MzEgJiMxMDtRIDI3MjggMzI3OCAyOTA2IDI5NjkgJiMxMDtMIDI5MDYgMzUwMCAmIzEwO0wgMzQ4MSAzNTAwICYjMTA7TCAzNDgxIDQzNCAmIzEwO3oiIGlkPSJEZWphVnVTYW5zLTY3Ii8+JiN4YTsgICAgICA8L2RlZnM+JiN4YTsgICAgICA8dXNlIHhsaW5rOmhyZWY9IiNEZWphVnVTYW5zLTUwIi8+JiN4YTsgICAgICA8dXNlIHg9IjU2LjY3NzczNCIgeGxpbms6aHJlZj0iI0RlamFWdVNhbnMtNjUiLz4mI3hhOyAgICAgIDx1c2UgeD0iMTE4LjIwMTE3MiIgeGxpbms6aHJlZj0iI0RlamFWdVNhbnMtNzIiLz4mI3hhOyAgICAgIDx1c2UgeD0iMTU3LjA2NDQ1MyIgeGxpbms6aHJlZj0iI0RlamFWdVNhbnMtNjMiLz4mI3hhOyAgICAgIDx1c2UgeD0iMjEyLjA0NDkyMiIgeGxpbms6aHJlZj0iI0RlamFWdVNhbnMtNjUiLz4mI3hhOyAgICAgIDx1c2UgeD0iMjczLjU2ODM1OSIgeGxpbms6aHJlZj0iI0RlamFWdVNhbnMtNmUiLz4mI3hhOyAgICAgIDx1c2UgeD0iMzM2Ljk0NzI2NiIgeGxpbms6aHJlZj0iI0RlamFWdVNhbnMtNzQiLz4mI3hhOyAgICAgIDx1c2UgeD0iMzc2LjE1NjI1IiB4bGluazpocmVmPSIjRGVqYVZ1U2Fucy02MSIvPiYjeGE7ICAgICAgPHVzZSB4PSI0MzcuNDM1NTQ3IiB4bGluazpocmVmPSIjRGVqYVZ1U2Fucy02NyIvPiYjeGE7ICAgICAgPHVzZSB4PSI1MDAuOTEyMTA5IiB4bGluazpocmVmPSIjRGVqYVZ1U2Fucy02NSIvPiYjeGE7ICAgICA8L2c+JiN4YTsgICAgPC9nPiYjeGE7ICAgPC9nPiYjeGE7ICAgPGcgaWQ9InBhdGNoXzYiPiYjeGE7ICAgIDxwYXRoIHN0eWxlPSJmaWxsOiBub25lOyBzdHJva2U6ICMwMDAwMDA7IHN0cm9rZS13aWR0aDogMC44OyBzdHJva2UtbGluZWpvaW46IG1pdGVyOyBzdHJva2UtbGluZWNhcDogc3F1YXJlIiBkPSJNIDU0IDM4NC40OCAmIzEwO0wgMzg4LjggMzg0LjQ4Ii8+JiN4YTsgICA8L2c+JiN4YTsgICA8ZyBpZD0idGV4dF8xMSI+JiN4YTsgICAgJiN4YTsgICAgPGcgdHJhbnNmb3JtPSJ0cmFuc2xhdGUoODguNTIxNzMzIDE4Mi44MTYzMTIpIHNjYWxlKDAuMSAtMC4xKSI+JiN4YTsgICAgIDxkZWZzPiYjeGE7ICAgICAgPHBhdGggdHJhbnNmb3JtPSJzY2FsZSgwLjAxNTYyNSkiIGQ9Ik0gNjkxIDQ2NjYgJiMxMDtMIDMxNjkgNDY2NiAmIzEwO0wgMzE2OSA0MTM0ICYjMTA7TCAxMjY5IDQxMzQgJiMxMDtMIDEyNjkgMjk5MSAmIzEwO1EgMTQwNiAzMDM4IDE1NDMgMzA2MSAmIzEwO1EgMTY4MSAzMDg0IDE4MTkgMzA4NCAmIzEwO1EgMjYwMCAzMDg0IDMwNTYgMjY1NiAmIzEwO1EgMzUxMyAyMjI4IDM1MTMgMTQ5NyAmIzEwO1EgMzUxMyA3NDQgMzA0NCAzMjYgJiMxMDtRIDI1NzUgLTkxIDE3MjIgLTkxICYjMTA7USAxNDI4IC05MSAxMTIzIC00MSAmIzEwO1EgODE5IDkgNDk0IDEwOSAmIzEwO0wgNDk0IDc0NCAmIzEwO1EgNzc1IDU5MSAxMDc1IDUxNiAmIzEwO1EgMTM3NSA0NDEgMTcwOSA0NDEgJiMxMDtRIDIyNTAgNDQxIDI1NjUgNzI1ICYjMTA7USAyODgxIDEwMDkgMjg4MSAxNDk3ICYjMTA7USAyODgxIDE5ODQgMjU2NSAyMjY4ICYjMTA7USAyMjUwIDI1NTMgMTcwOSAyNTUzICYjMTA7USAxNDU2IDI1NTMgMTIwNCAyNDk3ICYjMTA7USA5NTMgMjQ0MSA2OTEgMjMyMiAmIzEwO0wgNjkxIDQ2NjYgJiMxMDt6IiBpZD0iRGVqYVZ1U2Fucy0zNSIvPiYjeGE7ICAgICA8L2RlZnM+JiN4YTsgICAgIDx1c2UgeGxpbms6aHJlZj0iI0RlamFWdVNhbnMtMzAiLz4mI3hhOyAgICAgPHVzZSB4PSI2My42MjMwNDciIHhsaW5rOmhyZWY9IiNEZWphVnVTYW5zLTJlIi8+JiN4YTsgICAgIDx1c2UgeD0iOTUuNDEwMTU2IiB4bGluazpocmVmPSIjRGVqYVZ1U2Fucy0zNSIvPiYjeGE7ICAgICA8dXNlIHg9IjE1OS4wMzMyMDMiIHhsaW5rOmhyZWY9IiNEZWphVnVTYW5zLTM4Ii8+JiN4YTsgICAgPC9nPiYjeGE7ICAgPC9nPiYjeGE7ICAgPGcgaWQ9InRleHRfMTIiPiYjeGE7ICAgICYjeGE7ICAgIDxnIHRyYW5zZm9ybT0idHJhbnNsYXRlKDIxMC4yNjcxODggMTMyLjkyMDMxMykgc2NhbGUoMC4xIC0wLjEpIj4mI3hhOyAgICAgPGRlZnM+JiN4YTsgICAgICA8cGF0aCB0cmFuc2Zvcm09InNjYWxlKDAuMDE1NjI1KSIgZD0iTSA1MjUgNDY2NiAmIzEwO0wgMzUyNSA0NjY2ICYjMTA7TCAzNTI1IDQzOTcgJiMxMDtMIDE4MzEgMCAmIzEwO0wgMTE3MiAwICYjMTA7TCAyNzY2IDQxMzQgJiMxMDtMIDUyNSA0MTM0ICYjMTA7TCA1MjUgNDY2NiAmIzEwO3oiIGlkPSJEZWphVnVTYW5zLTM3Ii8+JiN4YTsgICAgICA8cGF0aCB0cmFuc2Zvcm09InNjYWxlKDAuMDE1NjI1KSIgZD0iTSAyNTk3IDI1MTYgJiMxMDtRIDMwNTAgMjQxOSAzMzA0IDIxMTIgJiMxMDtRIDM1NTkgMTgwNiAzNTU5IDEzNTYgJiMxMDtRIDM1NTkgNjY2IDMwODQgMjg3ICYjMTA7USAyNjA5IC05MSAxNzM0IC05MSAmIzEwO1EgMTQ0MSAtOTEgMTEzMCAtMzMgJiMxMDtRIDgxOSAyNSA0ODggMTQxICYjMTA7TCA0ODggNzUwICYjMTA7USA3NTAgNTk3IDEwNjIgNTE5ICYjMTA7USAxMzc1IDQ0MSAxNzE2IDQ0MSAmIzEwO1EgMjMwOSA0NDEgMjYyMCA2NzUgJiMxMDtRIDI5MzEgOTA5IDI5MzEgMTM1NiAmIzEwO1EgMjkzMSAxNzY5IDI2NDIgMjAwMSAmIzEwO1EgMjM1MyAyMjM0IDE4MzggMjIzNCAmIzEwO0wgMTI5NCAyMjM0ICYjMTA7TCAxMjk0IDI3NTMgJiMxMDtMIDE4NjMgMjc1MyAmIzEwO1EgMjMyOCAyNzUzIDI1NzUgMjkzOSAmIzEwO1EgMjgyMiAzMTI1IDI4MjIgMzQ3NSAmIzEwO1EgMjgyMiAzODM0IDI1NjcgNDAyNiAmIzEwO1EgMjMxMyA0MjE5IDE4MzggNDIxOSAmIzEwO1EgMTU3OCA0MjE5IDEyODEgNDE2MiAmIzEwO1EgOTg0IDQxMDYgNjI4IDM5ODggJiMxMDtMIDYyOCA0NTUwICYjMTA7USA5ODggNDY1MCAxMzAyIDQ3MDAgJiMxMDtRIDE2MTYgNDc1MCAxODk0IDQ3NTAgJiMxMDtRIDI2MTMgNDc1MCAzMDMxIDQ0MjMgJiMxMDtRIDM0NTAgNDA5NyAzNDUwIDM1NDEgJiMxMDtRIDM0NTAgMzE1MyAzMjI4IDI4ODYgJiMxMDtRIDMwMDYgMjYxOSAyNTk3IDI1MTYgJiMxMDt6IiBpZD0iRGVqYVZ1U2Fucy0zMyIvPiYjeGE7ICAgICA8L2RlZnM+JiN4YTsgICAgIDx1c2UgeGxpbms6aHJlZj0iI0RlamFWdVNhbnMtMzAiLz4mI3hhOyAgICAgPHVzZSB4PSI2My42MjMwNDciIHhsaW5rOmhyZWY9IiNEZWphVnVTYW5zLTJlIi8+JiN4YTsgICAgIDx1c2UgeD0iOTUuNDEwMTU2IiB4bGluazpocmVmPSIjRGVqYVZ1U2Fucy0zNyIvPiYjeGE7ICAgICA8dXNlIHg9IjE1OS4wMzMyMDMiIHhsaW5rOmhyZWY9IiNEZWphVnVTYW5zLTMzIi8+JiN4YTsgICAgPC9nPiYjeGE7ICAgPC9nPiYjeGE7ICAgPGcgaWQ9InRleHRfMTMiPiYjeGE7ICAgICYjeGE7ICAgIDxnIHRyYW5zZm9ybT0idHJhbnNsYXRlKDMzMi4wMTI2NDIgMTU5LjUzMTUxMikgc2NhbGUoMC4xIC0wLjEpIj4mI3hhOyAgICAgPHVzZSB4bGluazpocmVmPSIjRGVqYVZ1U2Fucy0zMCIvPiYjeGE7ICAgICA8dXNlIHg9IjYzLjYyMzA0NyIgeGxpbms6aHJlZj0iI0RlamFWdVNhbnMtMmUiLz4mI3hhOyAgICAgPHVzZSB4PSI5NS40MTAxNTYiIHhsaW5rOmhyZWY9IiNEZWphVnVTYW5zLTM2Ii8+JiN4YTsgICAgIDx1c2UgeD0iMTU5LjAzMzIwMyIgeGxpbms6aHJlZj0iI0RlamFWdVNhbnMtMzUiLz4mI3hhOyAgICA8L2c+JiN4YTsgICA8L2c+JiN4YTsgIDwvZz4mI3hhOyAgPGcgaWQ9InRleHRfMTQiPiYjeGE7ICAgJiN4YTsgICA8ZyB0cmFuc2Zvcm09InRyYW5zbGF0ZSgxOTAuNDg1IDE5LjAzMDYyNSkgc2NhbGUoMC4xNCAtMC4xNCkiPiYjeGE7ICAgIDxkZWZzPiYjeGE7ICAgICA8cGF0aCB0cmFuc2Zvcm09InNjYWxlKDAuMDE1NjI1KSIgZD0iTSAzODM0IDQ1MTkgJiMxMDtMIDM4MzQgMzUzMSAmIzEwO1EgMzQ1MCAzNzAzIDMwODQgMzc5MCAmIzEwO1EgMjcxOSAzODc4IDIzOTQgMzg3OCAmIzEwO1EgMTk2MyAzODc4IDE3NTYgMzc1OSAmIzEwO1EgMTU1MCAzNjQxIDE1NTAgMzM5MSAmIzEwO1EgMTU1MCAzMjAzIDE2ODkgMzA5OCAmIzEwO1EgMTgyOCAyOTk0IDIxOTQgMjkxOSAmIzEwO0wgMjcwNiAyODE2ICYjMTA7USAzNDg0IDI2NTkgMzgxMiAyMzQwICYjMTA7USA0MTQxIDIwMjIgNDE0MSAxNDM0ICYjMTA7USA0MTQxIDY2MyAzNjgzIDI4NiAmIzEwO1EgMzIyNSAtOTEgMjI4NCAtOTEgJiMxMDtRIDE4NDEgLTkxIDEzOTQgLTYgJiMxMDtRIDk0NyA3OCA1MDAgMjQ0ICYjMTA7TCA1MDAgMTI1OSAmIzEwO1EgOTQ3IDEwMjIgMTM2NCA5MDEgJiMxMDtRIDE3ODEgNzgxIDIxNjkgNzgxICYjMTA7USAyNTYzIDc4MSAyNzcyIDkxMiAmIzEwO1EgMjk4MSAxMDQ0IDI5ODEgMTI4OCAmIzEwO1EgMjk4MSAxNTA2IDI4MzkgMTYyNSAmIzEwO1EgMjY5NyAxNzQ0IDIyNzIgMTgzOCAmIzEwO0wgMTgwNiAxOTQxICYjMTA7USAxMTA2IDIwOTEgNzgyIDI0MTkgJiMxMDtRIDQ1OSAyNzQ3IDQ1OSAzMzAzICYjMTA7USA0NTkgNDAwMCA5MDkgNDM3NSAmIzEwO1EgMTM1OSA0NzUwIDIyMDMgNDc1MCAmIzEwO1EgMjU4OCA0NzUwIDI5OTQgNDY5MiAmIzEwO1EgMzQwMCA0NjM0IDM4MzQgNDUxOSAmIzEwO3oiIGlkPSJEZWphVnVTYW5zLUJvbGQtNTMiLz4mI3hhOyAgICAgPHBhdGggdHJhbnNmb3JtPSJzY2FsZSgwLjAxNTYyNSkiIGQ9Ik0gMjIwMyAyNzg0ICYjMTA7USAxODMxIDI3ODQgMTYzNiAyNTE3ICYjMTA7USAxNDQxIDIyNTAgMTQ0MSAxNzQ3ICYjMTA7USAxNDQxIDEyNDQgMTYzNiA5NzYgJiMxMDtRIDE4MzEgNzA5IDIyMDMgNzA5ICYjMTA7USAyNTY5IDcwOSAyNzYyIDk3NiAmIzEwO1EgMjk1NiAxMjQ0IDI5NTYgMTc0NyAmIzEwO1EgMjk1NiAyMjUwIDI3NjIgMjUxNyAmIzEwO1EgMjU2OSAyNzg0IDIyMDMgMjc4NCAmIzEwO3omIzEwO00gMjIwMyAzNTg0ICYjMTA7USAzMTA2IDM1ODQgMzYxNCAzMDk2ICYjMTA7USA0MTIyIDI2MDkgNDEyMiAxNzQ3ICYjMTA7USA0MTIyIDg4NCAzNjE0IDM5NiAmIzEwO1EgMzEwNiAtOTEgMjIwMyAtOTEgJiMxMDtRIDEyOTcgLTkxIDc4NiAzOTYgJiMxMDtRIDI3NSA4ODQgMjc1IDE3NDcgJiMxMDtRIDI3NSAyNjA5IDc4NiAzMDk2ICYjMTA7USAxMjk3IDM1ODQgMjIwMyAzNTg0ICYjMTA7eiIgaWQ9IkRlamFWdVNhbnMtQm9sZC02ZiIvPiYjeGE7ICAgICA8cGF0aCB0cmFuc2Zvcm09InNjYWxlKDAuMDE1NjI1KSIgZD0iTSAzNzgxIDI5MTkgJiMxMDtRIDM5OTQgMzI0NCA0Mjg2IDM0MTQgJiMxMDtRIDQ1NzggMzU4NCA0OTI4IDM1ODQgJiMxMDtRIDU1MzEgMzU4NCA1ODQ3IDMyMTIgJiMxMDtRIDYxNjMgMjg0MSA2MTYzIDIxMzEgJiMxMDtMIDYxNjMgMCAmIzEwO0wgNTAzOCAwICYjMTA7TCA1MDM4IDE4MjUgJiMxMDtRIDUwNDEgMTg2NiA1MDQyIDE5MDkgJiMxMDtRIDUwNDQgMTk1MyA1MDQ0IDIwMzQgJiMxMDtRIDUwNDQgMjQwNiA0OTM0IDI1NzMgJiMxMDtRIDQ4MjUgMjc0MSA0NTgxIDI3NDEgJiMxMDtRIDQyNjMgMjc0MSA0MDg5IDI0NzggJiMxMDtRIDM5MTYgMjIxNiAzOTA5IDE3MTkgJiMxMDtMIDM5MDkgMCAmIzEwO0wgMjc4NCAwICYjMTA7TCAyNzg0IDE4MjUgJiMxMDtRIDI3ODQgMjQwNiAyNjg0IDI1NzMgJiMxMDtRIDI1ODQgMjc0MSAyMzI4IDI3NDEgJiMxMDtRIDIwMDYgMjc0MSAxODMxIDI0NzcgJiMxMDtRIDE2NTYgMjIxMyAxNjU2IDE3MjIgJiMxMDtMIDE2NTYgMCAmIzEwO0wgNTMxIDAgJiMxMDtMIDUzMSAzNTAwICYjMTA7TCAxNjU2IDM1MDAgJiMxMDtMIDE2NTYgMjk4OCAmIzEwO1EgMTg2MyAzMjg0IDIxMzAgMzQzNCAmIzEwO1EgMjM5NyAzNTg0IDI3MTkgMzU4NCAmIzEwO1EgMzA4MSAzNTg0IDMzNTkgMzQwOSAmIzEwO1EgMzYzOCAzMjM0IDM3ODEgMjkxOSAmIzEwO3oiIGlkPSJEZWphVnVTYW5zLUJvbGQtNmQiLz4mI3hhOyAgICAgPHBhdGggdHJhbnNmb3JtPSJzY2FsZSgwLjAxNTYyNSkiIGQ9Ik0gMzIwMCAtOTE2ICYjMTA7TCAzMjAwIC0xNTA5ICYjMTA7TCAwIC0xNTA5ICYjMTA7TCAwIC05MTYgJiMxMDtMIDMyMDAgLTkxNiAmIzEwO3oiIGlkPSJEZWphVnVTYW5zLUJvbGQtNWYiLz4mI3hhOyAgICAgPHBhdGggdHJhbnNmb3JtPSJzY2FsZSgwLjAxNTYyNSkiIGQ9Ik0gMTg0NCA4ODQgJiMxMDtMIDM4OTcgODg0ICYjMTA7TCAzODk3IDAgJiMxMDtMIDUwNiAwICYjMTA7TCA1MDYgODg0ICYjMTA7TCAyMjA5IDIzODggJiMxMDtRIDI0MzggMjU5NCAyNTQ3IDI3OTEgJiMxMDtRIDI2NTYgMjk4OCAyNjU2IDMyMDAgJiMxMDtRIDI2NTYgMzUyOCAyNDM2IDM3MjggJiMxMDtRIDIyMTYgMzkyOCAxODUwIDM5MjggJiMxMDtRIDE1NjkgMzkyOCAxMjM0IDM4MDggJiMxMDtRIDkwMCAzNjg4IDUxOSAzNDUwICYjMTA7TCA1MTkgNDQ3NSAmIzEwO1EgOTI1IDQ2MDkgMTMyMiA0Njc5ICYjMTA7USAxNzE5IDQ3NTAgMjEwMCA0NzUwICYjMTA7USAyOTM4IDQ3NTAgMzQwMiA0MzgxICYjMTA7USAzODY2IDQwMTMgMzg2NiAzMzUzICYjMTA7USAzODY2IDI5NzIgMzY2OSAyNjQyICYjMTA7USAzNDcyIDIzMTMgMjg0MSAxNzU5ICYjMTA7TCAxODQ0IDg4NCAmIzEwO3oiIGlkPSJEZWphVnVTYW5zLUJvbGQtMzIiLz4mI3hhOyAgICA8L2RlZnM+JiN4YTsgICAgPHVzZSB4bGluazpocmVmPSIjRGVqYVZ1U2Fucy1Cb2xkLTUzIi8+JiN4YTsgICAgPHVzZSB4PSI3Mi4wMjE0ODQiIHhsaW5rOmhyZWY9IiNEZWphVnVTYW5zLUJvbGQtNmYiLz4mI3hhOyAgICA8dXNlIHg9IjE0MC43MjI2NTYiIHhsaW5rOmhyZWY9IiNEZWphVnVTYW5zLUJvbGQtNmQiLz4mI3hhOyAgICA8dXNlIHg9IjI0NC45MjE4NzUiIHhsaW5rOmhyZWY9IiNEZWphVnVTYW5zLUJvbGQtNWYiLz4mI3hhOyAgICA8dXNlIHg9IjI5NC45MjE4NzUiIHhsaW5rOmhyZWY9IiNEZWphVnVTYW5zLUJvbGQtMzIiLz4mI3hhOyAgIDwvZz4mI3hhOyAgPC9nPiYjeGE7IDwvZz4mI3hhOyA8ZGVmcz4mI3hhOyAgPGNsaXBQYXRoIGlkPSJwNDE4MzNhODIxZSI+JiN4YTsgICA8cmVjdCBoZWlnaHQ9IjMzMi42NCIgd2lkdGg9IjMzNC44IiB5PSI1MS44NCIgeD0iNTQiLz4mI3hhOyAgPC9jbGlwUGF0aD4mI3hhOyA8L2RlZnM+JiN4YTs8L3N2Zz4=;clipPath=inset(7.33% 8.33% 3.67% 3.67%);" vertex="1" parent="1">
          <mxGeometry y="80" width="427.14606741573033" height="432" as="geometry" />
        </mxCell>
        <mxCell id="Y54GdZBKNnL4c3YkCNKC-2" value="" style="shape=image;verticalLabelPosition=bottom;labelBackgroundColor=default;verticalAlign=top;aspect=fixed;imageAspect=0;image=data:image/svg+xml,PHN2ZyB4bWxucz0iaHR0cDovL3d3dy53My5vcmcvMjAwMC9zdmciIHhtbG5zOnhsaW5rPSJodHRwOi8vd3d3LnczLm9yZy8xOTk5L3hsaW5rIiB2ZXJzaW9uPSIxLjEiIHZpZXdCb3g9IjAgMCA0MzIgNDMyIiBoZWlnaHQ9IjQzMnB0IiB3aWR0aD0iNDMycHQiPiYjeGE7IDxtZXRhZGF0YT4mI3hhOyAgJiN4YTsgICAmI3hhOyAgICAmI3hhOyAgICAyMDI0LTA2LTEyVDE5OjU0OjIxLjI0OTQ1NiYjeGE7ICAgIGltYWdlL3N2Zyt4bWwmI3hhOyAgICAmI3hhOyAgICAgJiN4YTsgICAgICBNYXRwbG90bGliIHYzLjkuMCwgaHR0cHM6Ly9tYXRwbG90bGliLm9yZy8mI3hhOyAgICAgJiN4YTsgICAgJiN4YTsgICAmI3hhOyAgJiN4YTsgPC9tZXRhZGF0YT4mI3hhOyA8ZGVmcz4mI3hhOyAgPHN0eWxlIHR5cGU9InRleHQvY3NzIj4qe3N0cm9rZS1saW5lam9pbjogcm91bmQ7IHN0cm9rZS1saW5lY2FwOiBidXR0fTwvc3R5bGU+JiN4YTsgPC9kZWZzPiYjeGE7IDxnIGlkPSJmaWd1cmVfMSI+JiN4YTsgIDxnIGlkPSJwYXRjaF8xIj4mI3hhOyAgIDxwYXRoIHN0eWxlPSJmaWxsOiBub25lIiBkPSJNIDAgNDMyICYjMTA7TCA0MzIgNDMyICYjMTA7TCA0MzIgMCAmIzEwO0wgMCAwICYjMTA7TCAwIDQzMiAmIzEwO3oiLz4mI3hhOyAgPC9nPiYjeGE7ICA8ZyBpZD0iYXhlc18xIj4mI3hhOyAgIDxnIGlkPSJwYXRjaF8yIj4mI3hhOyAgICA8cGF0aCBzdHlsZT0iZmlsbDogbm9uZSIgZD0iTSA1NCAzODQuNDggJiMxMDtMIDM4OC44IDM4NC40OCAmIzEwO0wgMzg4LjggNTEuODQgJiMxMDtMIDU0IDUxLjg0ICYjMTA7TCA1NCAzODQuNDggJiMxMDt6Ii8+JiN4YTsgICA8L2c+JiN4YTsgICA8ZyBpZD0icGF0Y2hfMyI+JiN4YTsgICAgPHBhdGggc3R5bGU9ImZpbGw6ICNmOGI1NGYiIGNsaXAtcGF0aD0idXJsKCNwNDE4MzNhODIxZSkiIGQ9Ik0gNjkuMjE4MTgyIDM4NC40OCAmIzEwO0wgMTMwLjA5MDkwOSAzODQuNDggJiMxMDtMIDEzMC4wOTA5MDkgMTkxLjU0ODggJiMxMDtMIDY5LjIxODE4MiAxOTEuNTQ4OCAmIzEwO3oiLz4mI3hhOyAgIDwvZz4mI3hhOyAgIDxnIGlkPSJwYXRjaF80Ij4mI3hhOyAgICA8cGF0aCBzdHlsZT0iZmlsbDogIzIzY2E4OSIgY2xpcC1wYXRoPSJ1cmwoI3A0MTgzM2E4MjFlKSIgZD0iTSAxOTAuOTYzNjM2IDM4NC40OCAmIzEwO0wgMjUxLjgzNjM2NCAzODQuNDggJiMxMDtMIDI1MS44MzYzNjQgMTQxLjY1MjggJiMxMDtMIDE5MC45NjM2MzYgMTQxLjY1MjggJiMxMDt6Ii8+JiN4YTsgICA8L2c+JiN4YTsgICA8ZyBpZD0icGF0Y2hfNSI+JiN4YTsgICAgPHBhdGggc3R5bGU9ImZpbGw6ICMyNjZhYzEiIGNsaXAtcGF0aD0idXJsKCNwNDE4MzNhODIxZSkiIGQ9Ik0gMzEyLjcwOTA5MSAzODQuNDggJiMxMDtMIDM3My41ODE4MTggMzg0LjQ4ICYjMTA7TCAzNzMuNTgxODE4IDE2OC4yNjQgJiMxMDtMIDMxMi43MDkwOTEgMTY4LjI2NCAmIzEwO3oiLz4mI3hhOyAgIDwvZz4mI3hhOyAgIDxnIGlkPSJtYXRwbG90bGliLmF4aXNfMSI+JiN4YTsgICAgPGcgaWQ9Inh0aWNrXzEiPiYjeGE7ICAgICA8ZyBpZD0ibGluZTJkXzEiPiYjeGE7ICAgICAgPGRlZnM+JiN4YTsgICAgICAgPHBhdGggc3R5bGU9InN0cm9rZTogIzAwMDAwMDsgc3Ryb2tlLXdpZHRoOiAwLjgiIGQ9Ik0gMCAwICYjMTA7TCAwIDMuNSIgaWQ9Im0xZWY4ZmNhYTM3Ii8+JiN4YTsgICAgICA8L2RlZnM+JiN4YTsgICAgICA8Zz4mI3hhOyAgICAgICA8dXNlIHN0eWxlPSJzdHJva2U6ICMwMDAwMDA7IHN0cm9rZS13aWR0aDogMC44IiB5PSIzODQuNDgiIHg9Ijk5LjY1NDU0NSIgeGxpbms6aHJlZj0iI20xZWY4ZmNhYTM3Ii8+JiN4YTsgICAgICA8L2c+JiN4YTsgICAgIDwvZz4mI3hhOyAgICAgPGcgaWQ9InRleHRfMSI+JiN4YTsgICAgICAmI3hhOyAgICAgIDxnIHRyYW5zZm9ybT0idHJhbnNsYXRlKDgxLjgwODkyIDM5OS42NTg3NSkgc2NhbGUoMC4wOCAtMC4wOCkiPiYjeGE7ICAgICAgIDxkZWZzPiYjeGE7ICAgICAgICA8cGF0aCB0cmFuc2Zvcm09InNjYWxlKDAuMDE1NjI1KSIgZD0iTSAxMjU5IDQxNDcgJiMxMDtMIDEyNTkgMjM5NCAmIzEwO0wgMjA1MyAyMzk0ICYjMTA7USAyNDk0IDIzOTQgMjczNCAyNjIyICYjMTA7USAyOTc1IDI4NTAgMjk3NSAzMjcyICYjMTA7USAyOTc1IDM2OTEgMjczNCAzOTE5ICYjMTA7USAyNDk0IDQxNDcgMjA1MyA0MTQ3ICYjMTA7TCAxMjU5IDQxNDcgJiMxMDt6JiMxMDtNIDYyOCA0NjY2ICYjMTA7TCAyMDUzIDQ2NjYgJiMxMDtRIDI4MzggNDY2NiAzMjM5IDQzMTEgJiMxMDtRIDM2NDEgMzk1NiAzNjQxIDMyNzIgJiMxMDtRIDM2NDEgMjU4MSAzMjM5IDIyMjggJiMxMDtRIDI4MzggMTg3NSAyMDUzIDE4NzUgJiMxMDtMIDEyNTkgMTg3NSAmIzEwO0wgMTI1OSAwICYjMTA7TCA2MjggMCAmIzEwO0wgNjI4IDQ2NjYgJiMxMDt6IiBpZD0iRGVqYVZ1U2Fucy01MCIvPiYjeGE7ICAgICAgICA8cGF0aCB0cmFuc2Zvcm09InNjYWxlKDAuMDE1NjI1KSIgZD0iTSAyNjMxIDI5NjMgJiMxMDtRIDI1MzQgMzAxOSAyNDIwIDMwNDUgJiMxMDtRIDIzMDYgMzA3MiAyMTY5IDMwNzIgJiMxMDtRIDE2ODEgMzA3MiAxNDIwIDI3NTUgJiMxMDtRIDExNTkgMjQzOCAxMTU5IDE4NDQgJiMxMDtMIDExNTkgMCAmIzEwO0wgNTgxIDAgJiMxMDtMIDU4MSAzNTAwICYjMTA7TCAxMTU5IDM1MDAgJiMxMDtMIDExNTkgMjk1NiAmIzEwO1EgMTM0MSAzMjc1IDE2MzEgMzQyOSAmIzEwO1EgMTkyMiAzNTg0IDIzMzggMzU4NCAmIzEwO1EgMjM5NyAzNTg0IDI0NjkgMzU3NiAmIzEwO1EgMjU0MSAzNTY5IDI2MjggMzU1MyAmIzEwO0wgMjYzMSAyOTYzICYjMTA7eiIgaWQ9IkRlamFWdVNhbnMtNzIiLz4mI3hhOyAgICAgICAgPHBhdGggdHJhbnNmb3JtPSJzY2FsZSgwLjAxNTYyNSkiIGQ9Ik0gMzU5NyAxODk0ICYjMTA7TCAzNTk3IDE2MTMgJiMxMDtMIDk1MyAxNjEzICYjMTA7USA5OTEgMTAxOSAxMzExIDcwOCAmIzEwO1EgMTYzMSAzOTcgMjIwMyAzOTcgJiMxMDtRIDI1MzQgMzk3IDI4NDUgNDc4ICYjMTA7USAzMTU2IDU1OSAzNDYzIDcyMiAmIzEwO0wgMzQ2MyAxNzggJiMxMDtRIDMxNTMgNDcgMjgyOCAtMjIgJiMxMDtRIDI1MDMgLTkxIDIxNjkgLTkxICYjMTA7USAxMzMxIC05MSA4NDIgMzk2ICYjMTA7USAzNTMgODg0IDM1MyAxNzE2ICYjMTA7USAzNTMgMjU3NSA4MTcgMzA3OSAmIzEwO1EgMTI4MSAzNTg0IDIwNjkgMzU4NCAmIzEwO1EgMjc3NSAzNTg0IDMxODYgMzEyOSAmIzEwO1EgMzU5NyAyNjc1IDM1OTcgMTg5NCAmIzEwO3omIzEwO00gMzAyMiAyMDYzICYjMTA7USAzMDE2IDI1MzQgMjc1OCAyODE1ICYjMTA7USAyNTAwIDMwOTcgMjA3NSAzMDk3ICYjMTA7USAxNTk0IDMwOTcgMTMwNSAyODI1ICYjMTA7USAxMDE2IDI1NTMgOTcyIDIwNTkgJiMxMDtMIDMwMjIgMjA2MyAmIzEwO3oiIGlkPSJEZWphVnVTYW5zLTY1Ii8+JiN4YTsgICAgICAgIDxwYXRoIHRyYW5zZm9ybT0ic2NhbGUoMC4wMTU2MjUpIiBkPSJNIDMxMjIgMzM2NiAmIzEwO0wgMzEyMiAyODI4ICYjMTA7USAyODc4IDI5NjMgMjYzMyAzMDMwICYjMTA7USAyMzg4IDMwOTcgMjEzOCAzMDk3ICYjMTA7USAxNTc4IDMwOTcgMTI2OCAyNzQyICYjMTA7USA5NTkgMjM4OCA5NTkgMTc0NyAmIzEwO1EgOTU5IDExMDYgMTI2OCA3NTEgJiMxMDtRIDE1NzggMzk3IDIxMzggMzk3ICYjMTA7USAyMzg4IDM5NyAyNjMzIDQ2NCAmIzEwO1EgMjg3OCA1MzEgMzEyMiA2NjYgJiMxMDtMIDMxMjIgMTM0ICYjMTA7USAyODgxIDIyIDI2MjMgLTM0ICYjMTA7USAyMzY2IC05MSAyMDc1IC05MSAmIzEwO1EgMTI4NCAtOTEgODE4IDQwNiAmIzEwO1EgMzUzIDkwMyAzNTMgMTc0NyAmIzEwO1EgMzUzIDI2MDMgODIzIDMwOTMgJiMxMDtRIDEyOTQgMzU4NCAyMTEzIDM1ODQgJiMxMDtRIDIzNzggMzU4NCAyNjMxIDM1MjkgJiMxMDtRIDI4ODQgMzQ3NSAzMTIyIDMzNjYgJiMxMDt6IiBpZD0iRGVqYVZ1U2Fucy02MyIvPiYjeGE7ICAgICAgICA8cGF0aCB0cmFuc2Zvcm09InNjYWxlKDAuMDE1NjI1KSIgZD0iTSA2MDMgMzUwMCAmIzEwO0wgMTE3OCAzNTAwICYjMTA7TCAxMTc4IDAgJiMxMDtMIDYwMyAwICYjMTA7TCA2MDMgMzUwMCAmIzEwO3omIzEwO00gNjAzIDQ4NjMgJiMxMDtMIDExNzggNDg2MyAmIzEwO0wgMTE3OCA0MTM0ICYjMTA7TCA2MDMgNDEzNCAmIzEwO0wgNjAzIDQ4NjMgJiMxMDt6IiBpZD0iRGVqYVZ1U2Fucy02OSIvPiYjeGE7ICAgICAgICA8cGF0aCB0cmFuc2Zvcm09InNjYWxlKDAuMDE1NjI1KSIgZD0iTSAyODM0IDMzOTcgJiMxMDtMIDI4MzQgMjg1MyAmIzEwO1EgMjU5MSAyOTc4IDIzMjggMzA0MCAmIzEwO1EgMjA2NiAzMTAzIDE3ODQgMzEwMyAmIzEwO1EgMTM1NiAzMTAzIDExNDIgMjk3MiAmIzEwO1EgOTI4IDI4NDEgOTI4IDI1NzggJiMxMDtRIDkyOCAyMzc4IDEwODEgMjI2NCAmIzEwO1EgMTIzNCAyMTUwIDE2OTcgMjA0NyAmIzEwO0wgMTg5NCAyMDAzICYjMTA7USAyNTA2IDE4NzIgMjc2NCAxNjMzICYjMTA7USAzMDIyIDEzOTQgMzAyMiA5NjYgJiMxMDtRIDMwMjIgNDc4IDI2MzYgMTkzICYjMTA7USAyMjUwIC05MSAxNTc1IC05MSAmIzEwO1EgMTI5NCAtOTEgOTg5IC0zNiAmIzEwO1EgNjg0IDE5IDM0NyAxMjggJiMxMDtMIDM0NyA3MjIgJiMxMDtRIDY2NiA1NTYgOTc1IDQ3MyAmIzEwO1EgMTI4NCAzOTEgMTU4OCAzOTEgJiMxMDtRIDE5OTQgMzkxIDIyMTIgNTMwICYjMTA7USAyNDMxIDY2OSAyNDMxIDkyMiAmIzEwO1EgMjQzMSAxMTU2IDIyNzMgMTI4MSAmIzEwO1EgMjExNiAxNDA2IDE1ODEgMTUyMiAmIzEwO0wgMTM4MSAxNTY5ICYjMTA7USA4NDcgMTY4MSA2MDkgMTkxNCAmIzEwO1EgMzcyIDIxNDcgMzcyIDI1NTMgJiMxMDtRIDM3MiAzMDQ3IDcyMiAzMzE1ICYjMTA7USAxMDcyIDM1ODQgMTcxNiAzNTg0ICYjMTA7USAyMDM0IDM1ODQgMjMxNSAzNTM3ICYjMTA7USAyNTk3IDM0OTEgMjgzNCAzMzk3ICYjMTA7eiIgaWQ9IkRlamFWdVNhbnMtNzMiLz4mI3hhOyAgICAgICAgPHBhdGggdHJhbnNmb3JtPSJzY2FsZSgwLjAxNTYyNSkiIGQ9Ik0gMTk1OSAzMDk3ICYjMTA7USAxNDk3IDMwOTcgMTIyOCAyNzM2ICYjMTA7USA5NTkgMjM3NSA5NTkgMTc0NyAmIzEwO1EgOTU5IDExMTkgMTIyNiA3NTggJiMxMDtRIDE0OTQgMzk3IDE5NTkgMzk3ICYjMTA7USAyNDE5IDM5NyAyNjg3IDc1OSAmIzEwO1EgMjk1NiAxMTIyIDI5NTYgMTc0NyAmIzEwO1EgMjk1NiAyMzY5IDI2ODcgMjczMyAmIzEwO1EgMjQxOSAzMDk3IDE5NTkgMzA5NyAmIzEwO3omIzEwO00gMTk1OSAzNTg0ICYjMTA7USAyNzA5IDM1ODQgMzEzNyAzMDk2ICYjMTA7USAzNTY2IDI2MDkgMzU2NiAxNzQ3ICYjMTA7USAzNTY2IDg4OCAzMTM3IDM5OCAmIzEwO1EgMjcwOSAtOTEgMTk1OSAtOTEgJiMxMDtRIDEyMDYgLTkxIDc3OSAzOTggJiMxMDtRIDM1MyA4ODggMzUzIDE3NDcgJiMxMDtRIDM1MyAyNjA5IDc3OSAzMDk2ICYjMTA7USAxMjA2IDM1ODQgMTk1OSAzNTg0ICYjMTA7eiIgaWQ9IkRlamFWdVNhbnMtNmYiLz4mI3hhOyAgICAgICAgPHBhdGggdHJhbnNmb3JtPSJzY2FsZSgwLjAxNTYyNSkiIGQ9Ik0gMzUxMyAyMTEzICYjMTA7TCAzNTEzIDAgJiMxMDtMIDI5MzggMCAmIzEwO0wgMjkzOCAyMDk0ICYjMTA7USAyOTM4IDI1OTEgMjc0NCAyODM3ICYjMTA7USAyNTUwIDMwODQgMjE2MyAzMDg0ICYjMTA7USAxNjk3IDMwODQgMTQyOCAyNzg3ICYjMTA7USAxMTU5IDI0OTEgMTE1OSAxOTc4ICYjMTA7TCAxMTU5IDAgJiMxMDtMIDU4MSAwICYjMTA7TCA1ODEgMzUwMCAmIzEwO0wgMTE1OSAzNTAwICYjMTA7TCAxMTU5IDI5NTYgJiMxMDtRIDEzNjYgMzI3MiAxNjQ1IDM0MjggJiMxMDtRIDE5MjUgMzU4NCAyMjkxIDM1ODQgJiMxMDtRIDI4OTQgMzU4NCAzMjAzIDMyMTEgJiMxMDtRIDM1MTMgMjgzOCAzNTEzIDIxMTMgJiMxMDt6IiBpZD0iRGVqYVZ1U2Fucy02ZSIvPiYjeGE7ICAgICAgIDwvZGVmcz4mI3hhOyAgICAgICA8dXNlIHhsaW5rOmhyZWY9IiNEZWphVnVTYW5zLTUwIi8+JiN4YTsgICAgICAgPHVzZSB4PSI1OC41NTI3MzQiIHhsaW5rOmhyZWY9IiNEZWphVnVTYW5zLTcyIi8+JiN4YTsgICAgICAgPHVzZSB4PSI5Ny40MTYwMTYiIHhsaW5rOmhyZWY9IiNEZWphVnVTYW5zLTY1Ii8+JiN4YTsgICAgICAgPHVzZSB4PSIxNTguOTM5NDUzIiB4bGluazpocmVmPSIjRGVqYVZ1U2Fucy02MyIvPiYjeGE7ICAgICAgIDx1c2UgeD0iMjEzLjkxOTkyMiIgeGxpbms6aHJlZj0iI0RlamFWdVNhbnMtNjkiLz4mI3hhOyAgICAgICA8dXNlIHg9IjI0MS43MDMxMjUiIHhsaW5rOmhyZWY9IiNEZWphVnVTYW5zLTczIi8+JiN4YTsgICAgICAgPHVzZSB4PSIyOTMuODAyNzM0IiB4bGluazpocmVmPSIjRGVqYVZ1U2Fucy02OSIvPiYjeGE7ICAgICAgIDx1c2UgeD0iMzIxLjU4NTkzOCIgeGxpbms6aHJlZj0iI0RlamFWdVNhbnMtNmYiLz4mI3hhOyAgICAgICA8dXNlIHg9IjM4Mi43Njc1NzgiIHhsaW5rOmhyZWY9IiNEZWphVnVTYW5zLTZlIi8+JiN4YTsgICAgICA8L2c+JiN4YTsgICAgIDwvZz4mI3hhOyAgICA8L2c+JiN4YTsgICAgPGcgaWQ9Inh0aWNrXzIiPiYjeGE7ICAgICA8ZyBpZD0ibGluZTJkXzIiPiYjeGE7ICAgICAgPGc+JiN4YTsgICAgICAgPHVzZSBzdHlsZT0ic3Ryb2tlOiAjMDAwMDAwOyBzdHJva2Utd2lkdGg6IDAuOCIgeT0iMzg0LjQ4IiB4PSIyMjEuNCIgeGxpbms6aHJlZj0iI20xZWY4ZmNhYTM3Ii8+JiN4YTsgICAgICA8L2c+JiN4YTsgICAgIDwvZz4mI3hhOyAgICAgPGcgaWQ9InRleHRfMiI+JiN4YTsgICAgICAmI3hhOyAgICAgIDxnIHRyYW5zZm9ybT0idHJhbnNsYXRlKDIwOS40NjYyNSAzOTkuNjU4NzUpIHNjYWxlKDAuMDggLTAuMDgpIj4mI3hhOyAgICAgICA8ZGVmcz4mI3hhOyAgICAgICAgPHBhdGggdHJhbnNmb3JtPSJzY2FsZSgwLjAxNTYyNSkiIGQ9Ik0gMjg0MSAyMTg4ICYjMTA7USAzMDQ0IDIxMTkgMzIzNiAxODk0ICYjMTA7USAzNDI4IDE2NjkgMzYyMiAxMjc1ICYjMTA7TCA0MjYzIDAgJiMxMDtMIDM1ODQgMCAmIzEwO0wgMjk4OCAxMTk3ICYjMTA7USAyNzU2IDE2NjYgMjUzOSAxODE5ICYjMTA7USAyMzIyIDE5NzIgMTk0NyAxOTcyICYjMTA7TCAxMjU5IDE5NzIgJiMxMDtMIDEyNTkgMCAmIzEwO0wgNjI4IDAgJiMxMDtMIDYyOCA0NjY2ICYjMTA7TCAyMDUzIDQ2NjYgJiMxMDtRIDI4NTMgNDY2NiAzMjQ3IDQzMzEgJiMxMDtRIDM2NDEgMzk5NyAzNjQxIDMzMjIgJiMxMDtRIDM2NDEgMjg4MSAzNDM2IDI1OTAgJiMxMDtRIDMyMzEgMjMwMCAyODQxIDIxODggJiMxMDt6JiMxMDtNIDEyNTkgNDE0NyAmIzEwO0wgMTI1OSAyNDkxICYjMTA7TCAyMDUzIDI0OTEgJiMxMDtRIDI1MDkgMjQ5MSAyNzQyIDI3MDIgJiMxMDtRIDI5NzUgMjkxMyAyOTc1IDMzMjIgJiMxMDtRIDI5NzUgMzczMSAyNzQyIDM5MzkgJiMxMDtRIDI1MDkgNDE0NyAyMDUzIDQxNDcgJiMxMDtMIDEyNTkgNDE0NyAmIzEwO3oiIGlkPSJEZWphVnVTYW5zLTUyIi8+JiN4YTsgICAgICAgIDxwYXRoIHRyYW5zZm9ybT0ic2NhbGUoMC4wMTU2MjUpIiBkPSJNIDIxOTQgMTc1OSAmIzEwO1EgMTQ5NyAxNzU5IDEyMjggMTYwMCAmIzEwO1EgOTU5IDE0NDEgOTU5IDEwNTYgJiMxMDtRIDk1OSA3NTAgMTE2MSA1NzAgJiMxMDtRIDEzNjMgMzkxIDE3MDkgMzkxICYjMTA7USAyMTg4IDM5MSAyNDc3IDczMCAmIzEwO1EgMjc2NiAxMDY5IDI3NjYgMTYzMSAmIzEwO0wgMjc2NiAxNzU5ICYjMTA7TCAyMTk0IDE3NTkgJiMxMDt6JiMxMDtNIDMzNDEgMTk5NyAmIzEwO0wgMzM0MSAwICYjMTA7TCAyNzY2IDAgJiMxMDtMIDI3NjYgNTMxICYjMTA7USAyNTY5IDIxMyAyMjc1IDYxICYjMTA7USAxOTgxIC05MSAxNTU2IC05MSAmIzEwO1EgMTAxOSAtOTEgNzAxIDIxMSAmIzEwO1EgMzg0IDUxMyAzODQgMTAxOSAmIzEwO1EgMzg0IDE2MDkgNzc5IDE5MDkgJiMxMDtRIDExNzUgMjIwOSAxOTU5IDIyMDkgJiMxMDtMIDI3NjYgMjIwOSAmIzEwO0wgMjc2NiAyMjY2ICYjMTA7USAyNzY2IDI2NjMgMjUwNSAyODgwICYjMTA7USAyMjQ0IDMwOTcgMTc3MiAzMDk3ICYjMTA7USAxNDcyIDMwOTcgMTE4NyAzMDI1ICYjMTA7USA5MDMgMjk1MyA2NDEgMjgwOSAmIzEwO0wgNjQxIDMzNDEgJiMxMDtRIDk1NiAzNDYzIDEyNTMgMzUyMyAmIzEwO1EgMTU1MCAzNTg0IDE4MzEgMzU4NCAmIzEwO1EgMjU5MSAzNTg0IDI5NjYgMzE5MCAmIzEwO1EgMzM0MSAyNzk3IDMzNDEgMTk5NyAmIzEwO3oiIGlkPSJEZWphVnVTYW5zLTYxIi8+JiN4YTsgICAgICAgIDxwYXRoIHRyYW5zZm9ybT0ic2NhbGUoMC4wMTU2MjUpIiBkPSJNIDYwMyA0ODYzICYjMTA7TCAxMTc4IDQ4NjMgJiMxMDtMIDExNzggMCAmIzEwO0wgNjAzIDAgJiMxMDtMIDYwMyA0ODYzICYjMTA7eiIgaWQ9IkRlamFWdVNhbnMtNmMiLz4mI3hhOyAgICAgICA8L2RlZnM+JiN4YTsgICAgICAgPHVzZSB4bGluazpocmVmPSIjRGVqYVZ1U2Fucy01MiIvPiYjeGE7ICAgICAgIDx1c2UgeD0iNjQuOTgyNDIyIiB4bGluazpocmVmPSIjRGVqYVZ1U2Fucy02NSIvPiYjeGE7ICAgICAgIDx1c2UgeD0iMTI2LjUwNTg1OSIgeGxpbms6aHJlZj0iI0RlamFWdVNhbnMtNjMiLz4mI3hhOyAgICAgICA8dXNlIHg9IjE4MS40ODYzMjgiIHhsaW5rOmhyZWY9IiNEZWphVnVTYW5zLTYxIi8+JiN4YTsgICAgICAgPHVzZSB4PSIyNDIuNzY1NjI1IiB4bGluazpocmVmPSIjRGVqYVZ1U2Fucy02YyIvPiYjeGE7ICAgICAgIDx1c2UgeD0iMjcwLjU0ODgyOCIgeGxpbms6aHJlZj0iI0RlamFWdVNhbnMtNmMiLz4mI3hhOyAgICAgIDwvZz4mI3hhOyAgICAgPC9nPiYjeGE7ICAgIDwvZz4mI3hhOyAgICA8ZyBpZD0ieHRpY2tfMyI+JiN4YTsgICAgIDxnIGlkPSJsaW5lMmRfMyI+JiN4YTsgICAgICA8Zz4mI3hhOyAgICAgICA8dXNlIHN0eWxlPSJzdHJva2U6ICMwMDAwMDA7IHN0cm9rZS13aWR0aDogMC44IiB5PSIzODQuNDgiIHg9IjM0My4xNDU0NTUiIHhsaW5rOmhyZWY9IiNtMWVmOGZjYWEzNyIvPiYjeGE7ICAgICAgPC9nPiYjeGE7ICAgICA8L2c+JiN4YTsgICAgIDxnIGlkPSJ0ZXh0XzMiPiYjeGE7ICAgICAgJiN4YTsgICAgICA8ZyB0cmFuc2Zvcm09InRyYW5zbGF0ZSgzMjUuODI2NzA1IDM5OS42NTg3NSkgc2NhbGUoMC4wOCAtMC4wOCkiPiYjeGE7ICAgICAgIDxkZWZzPiYjeGE7ICAgICAgICA8cGF0aCB0cmFuc2Zvcm09InNjYWxlKDAuMDE1NjI1KSIgZD0iTSA2MjggNDY2NiAmIzEwO0wgMzMwOSA0NjY2ICYjMTA7TCAzMzA5IDQxMzQgJiMxMDtMIDEyNTkgNDEzNCAmIzEwO0wgMTI1OSAyNzU5ICYjMTA7TCAzMTA5IDI3NTkgJiMxMDtMIDMxMDkgMjIyOCAmIzEwO0wgMTI1OSAyMjI4ICYjMTA7TCAxMjU5IDAgJiMxMDtMIDYyOCAwICYjMTA7TCA2MjggNDY2NiAmIzEwO3oiIGlkPSJEZWphVnVTYW5zLTQ2Ii8+JiN4YTsgICAgICAgIDxwYXRoIHRyYW5zZm9ybT0ic2NhbGUoMC4wMTU2MjUpIiBkPSJNIDc5NCA1MzEgJiMxMDtMIDE4MjUgNTMxICYjMTA7TCAxODI1IDQwOTEgJiMxMDtMIDcwMyAzODY2ICYjMTA7TCA3MDMgNDQ0MSAmIzEwO0wgMTgxOSA0NjY2ICYjMTA7TCAyNDUwIDQ2NjYgJiMxMDtMIDI0NTAgNTMxICYjMTA7TCAzNDgxIDUzMSAmIzEwO0wgMzQ4MSAwICYjMTA7TCA3OTQgMCAmIzEwO0wgNzk0IDUzMSAmIzEwO3oiIGlkPSJEZWphVnVTYW5zLTMxIi8+JiN4YTsgICAgICAgIDxwYXRoIHRyYW5zZm9ybT0ic2NhbGUoMC4wMTU2MjUpIiBpZD0iRGVqYVZ1U2Fucy0yMCIvPiYjeGE7ICAgICAgICA8cGF0aCB0cmFuc2Zvcm09InNjYWxlKDAuMDE1NjI1KSIgZD0iTSAzNDI1IDQ1MTMgJiMxMDtMIDM0MjUgMzg5NyAmIzEwO1EgMzA2NiA0MDY5IDI3NDcgNDE1MyAmIzEwO1EgMjQyOCA0MjM4IDIxMzEgNDIzOCAmIzEwO1EgMTYxNiA0MjM4IDEzMzYgNDAzOCAmIzEwO1EgMTA1NiAzODM4IDEwNTYgMzQ2OSAmIzEwO1EgMTA1NiAzMTU5IDEyNDIgMzAwMSAmIzEwO1EgMTQyOCAyODQ0IDE5NDcgMjc0NyAmIzEwO0wgMjMyOCAyNjY5ICYjMTA7USAzMDM0IDI1MzQgMzM3MCAyMTk1ICYjMTA7USAzNzA2IDE4NTYgMzcwNiAxMjg4ICYjMTA7USAzNzA2IDYwOSAzMjUxIDI1OSAmIzEwO1EgMjc5NyAtOTEgMTkxOSAtOTEgJiMxMDtRIDE1ODggLTkxIDEyMTQgLTE2ICYjMTA7USA4NDEgNTkgNDQxIDIwNiAmIzEwO0wgNDQxIDg1NiAmIzEwO1EgODI1IDY0MSAxMTk0IDUzMSAmIzEwO1EgMTU2MyA0MjIgMTkxOSA0MjIgJiMxMDtRIDI0NTkgNDIyIDI3NTMgNjM0ICYjMTA7USAzMDQ3IDg0NyAzMDQ3IDEyNDEgJiMxMDtRIDMwNDcgMTU4NCAyODM2IDE3NzggJiMxMDtRIDI2MjUgMTk3MiAyMTQ0IDIwNjkgJiMxMDtMIDE3NTkgMjE0NCAmIzEwO1EgMTA1MyAyMjg0IDczNyAyNTg0ICYjMTA7USA0MjIgMjg4NCA0MjIgMzQxOSAmIzEwO1EgNDIyIDQwMzggODU4IDQzOTQgJiMxMDtRIDEyOTQgNDc1MCAyMDU5IDQ3NTAgJiMxMDtRIDIzODggNDc1MCAyNzI4IDQ2OTAgJiMxMDtRIDMwNjkgNDYzMSAzNDI1IDQ1MTMgJiMxMDt6IiBpZD0iRGVqYVZ1U2Fucy01MyIvPiYjeGE7ICAgICAgIDwvZGVmcz4mI3hhOyAgICAgICA8dXNlIHhsaW5rOmhyZWY9IiNEZWphVnVTYW5zLTQ2Ii8+JiN4YTsgICAgICAgPHVzZSB4PSI1Ny41MTk1MzEiIHhsaW5rOmhyZWY9IiNEZWphVnVTYW5zLTMxIi8+JiN4YTsgICAgICAgPHVzZSB4PSIxMjEuMTQyNTc4IiB4bGluazpocmVmPSIjRGVqYVZ1U2Fucy0yMCIvPiYjeGE7ICAgICAgIDx1c2UgeD0iMTUyLjkyOTY4OCIgeGxpbms6aHJlZj0iI0RlamFWdVNhbnMtNTMiLz4mI3hhOyAgICAgICA8dXNlIHg9IjIxNi40MDYyNSIgeGxpbms6aHJlZj0iI0RlamFWdVNhbnMtNjMiLz4mI3hhOyAgICAgICA8dXNlIHg9IjI3MS4zODY3MTkiIHhsaW5rOmhyZWY9IiNEZWphVnVTYW5zLTZmIi8+JiN4YTsgICAgICAgPHVzZSB4PSIzMzIuNTY4MzU5IiB4bGluazpocmVmPSIjRGVqYVZ1U2Fucy03MiIvPiYjeGE7ICAgICAgIDx1c2UgeD0iMzcxLjQzMTY0MSIgeGxpbms6aHJlZj0iI0RlamFWdVNhbnMtNjUiLz4mI3hhOyAgICAgIDwvZz4mI3hhOyAgICAgPC9nPiYjeGE7ICAgIDwvZz4mI3hhOyAgIDwvZz4mI3hhOyAgIDxnIGlkPSJtYXRwbG90bGliLmF4aXNfMiI+JiN4YTsgICAgPGcgaWQ9Inl0aWNrXzEiPiYjeGE7ICAgICA8ZyBpZD0ibGluZTJkXzQiPiYjeGE7ICAgICAgPGRlZnM+JiN4YTsgICAgICAgPHBhdGggc3R5bGU9InN0cm9rZTogIzAwMDAwMDsgc3Ryb2tlLXdpZHRoOiAwLjgiIGQ9Ik0gMCAwICYjMTA7TCAtMy41IDAiIGlkPSJtY2ExMjBjOGM1YSIvPiYjeGE7ICAgICAgPC9kZWZzPiYjeGE7ICAgICAgPGc+JiN4YTsgICAgICAgPHVzZSBzdHlsZT0ic3Ryb2tlOiAjMDAwMDAwOyBzdHJva2Utd2lkdGg6IDAuOCIgeT0iMzg0LjQ4IiB4PSI1NCIgeGxpbms6aHJlZj0iI21jYTEyMGM4YzVhIi8+JiN4YTsgICAgICA8L2c+JiN4YTsgICAgIDwvZz4mI3hhOyAgICAgPGcgaWQ9InRleHRfNCI+JiN4YTsgICAgICAmI3hhOyAgICAgIDxnIHRyYW5zZm9ybT0idHJhbnNsYXRlKDMyLjE3NzUgMzg3LjUxOTM3NSkgc2NhbGUoMC4wOCAtMC4wOCkiPiYjeGE7ICAgICAgIDxkZWZzPiYjeGE7ICAgICAgICA8cGF0aCB0cmFuc2Zvcm09InNjYWxlKDAuMDE1NjI1KSIgZD0iTSAyMDM0IDQyNTAgJiMxMDtRIDE1NDcgNDI1MCAxMzAxIDM3NzAgJiMxMDtRIDEwNTYgMzI5MSAxMDU2IDIzMjggJiMxMDtRIDEwNTYgMTM2OSAxMzAxIDg4OSAmIzEwO1EgMTU0NyA0MDkgMjAzNCA0MDkgJiMxMDtRIDI1MjUgNDA5IDI3NzAgODg5ICYjMTA7USAzMDE2IDEzNjkgMzAxNiAyMzI4ICYjMTA7USAzMDE2IDMyOTEgMjc3MCAzNzcwICYjMTA7USAyNTI1IDQyNTAgMjAzNCA0MjUwICYjMTA7eiYjMTA7TSAyMDM0IDQ3NTAgJiMxMDtRIDI4MTkgNDc1MCAzMjMzIDQxMjkgJiMxMDtRIDM2NDcgMzUwOSAzNjQ3IDIzMjggJiMxMDtRIDM2NDcgMTE1MCAzMjMzIDUyOSAmIzEwO1EgMjgxOSAtOTEgMjAzNCAtOTEgJiMxMDtRIDEyNTAgLTkxIDgzNiA1MjkgJiMxMDtRIDQyMiAxMTUwIDQyMiAyMzI4ICYjMTA7USA0MjIgMzUwOSA4MzYgNDEyOSAmIzEwO1EgMTI1MCA0NzUwIDIwMzQgNDc1MCAmIzEwO3oiIGlkPSJEZWphVnVTYW5zLTMwIi8+JiN4YTsgICAgICAgIDxwYXRoIHRyYW5zZm9ybT0ic2NhbGUoMC4wMTU2MjUpIiBkPSJNIDY4NCA3OTQgJiMxMDtMIDEzNDQgNzk0ICYjMTA7TCAxMzQ0IDAgJiMxMDtMIDY4NCAwICYjMTA7TCA2ODQgNzk0ICYjMTA7eiIgaWQ9IkRlamFWdVNhbnMtMmUiLz4mI3hhOyAgICAgICA8L2RlZnM+JiN4YTsgICAgICAgPHVzZSB4bGluazpocmVmPSIjRGVqYVZ1U2Fucy0zMCIvPiYjeGE7ICAgICAgIDx1c2UgeD0iNjMuNjIzMDQ3IiB4bGluazpocmVmPSIjRGVqYVZ1U2Fucy0yZSIvPiYjeGE7ICAgICAgIDx1c2UgeD0iOTUuNDEwMTU2IiB4bGluazpocmVmPSIjRGVqYVZ1U2Fucy0zMCIvPiYjeGE7ICAgICAgPC9nPiYjeGE7ICAgICA8L2c+JiN4YTsgICAgPC9nPiYjeGE7ICAgIDxnIGlkPSJ5dGlja18yIj4mI3hhOyAgICAgPGcgaWQ9ImxpbmUyZF81Ij4mI3hhOyAgICAgIDxnPiYjeGE7ICAgICAgIDx1c2Ugc3R5bGU9InN0cm9rZTogIzAwMDAwMDsgc3Ryb2tlLXdpZHRoOiAwLjgiIHk9IjMxNy45NTIiIHg9IjU0IiB4bGluazpocmVmPSIjbWNhMTIwYzhjNWEiLz4mI3hhOyAgICAgIDwvZz4mI3hhOyAgICAgPC9nPiYjeGE7ICAgICA8ZyBpZD0idGV4dF81Ij4mI3hhOyAgICAgICYjeGE7ICAgICAgPGcgdHJhbnNmb3JtPSJ0cmFuc2xhdGUoMzIuMTc3NSAzMjAuOTkxMzc1KSBzY2FsZSgwLjA4IC0wLjA4KSI+JiN4YTsgICAgICAgPGRlZnM+JiN4YTsgICAgICAgIDxwYXRoIHRyYW5zZm9ybT0ic2NhbGUoMC4wMTU2MjUpIiBkPSJNIDEyMjggNTMxICYjMTA7TCAzNDMxIDUzMSAmIzEwO0wgMzQzMSAwICYjMTA7TCA0NjkgMCAmIzEwO0wgNDY5IDUzMSAmIzEwO1EgODI4IDkwMyAxNDQ4IDE1MjkgJiMxMDtRIDIwNjkgMjE1NiAyMjI4IDIzMzggJiMxMDtRIDI1MzEgMjY3OCAyNjUxIDI5MTQgJiMxMDtRIDI3NzIgMzE1MCAyNzcyIDMzNzggJiMxMDtRIDI3NzIgMzc1MCAyNTExIDM5ODQgJiMxMDtRIDIyNTAgNDIxOSAxODMxIDQyMTkgJiMxMDtRIDE1MzQgNDIxOSAxMjA0IDQxMTYgJiMxMDtRIDg3NSA0MDEzIDUwMCAzODAzICYjMTA7TCA1MDAgNDQ0MSAmIzEwO1EgODgxIDQ1OTQgMTIxMiA0NjcyICYjMTA7USAxNTQ0IDQ3NTAgMTgxOSA0NzUwICYjMTA7USAyNTQ0IDQ3NTAgMjk3NSA0Mzg3ICYjMTA7USAzNDA2IDQwMjUgMzQwNiAzNDE5ICYjMTA7USAzNDA2IDMxMzEgMzI5OCAyODczICYjMTA7USAzMTkxIDI2MTYgMjkwNiAyMjY2ICYjMTA7USAyODI4IDIxNzUgMjQwOSAxNzQyICYjMTA7USAxOTkxIDEzMDkgMTIyOCA1MzEgJiMxMDt6IiBpZD0iRGVqYVZ1U2Fucy0zMiIvPiYjeGE7ICAgICAgIDwvZGVmcz4mI3hhOyAgICAgICA8dXNlIHhsaW5rOmhyZWY9IiNEZWphVnVTYW5zLTMwIi8+JiN4YTsgICAgICAgPHVzZSB4PSI2My42MjMwNDciIHhsaW5rOmhyZWY9IiNEZWphVnVTYW5zLTJlIi8+JiN4YTsgICAgICAgPHVzZSB4PSI5NS40MTAxNTYiIHhsaW5rOmhyZWY9IiNEZWphVnVTYW5zLTMyIi8+JiN4YTsgICAgICA8L2c+JiN4YTsgICAgIDwvZz4mI3hhOyAgICA8L2c+JiN4YTsgICAgPGcgaWQ9Inl0aWNrXzMiPiYjeGE7ICAgICA8ZyBpZD0ibGluZTJkXzYiPiYjeGE7ICAgICAgPGc+JiN4YTsgICAgICAgPHVzZSBzdHlsZT0ic3Ryb2tlOiAjMDAwMDAwOyBzdHJva2Utd2lkdGg6IDAuOCIgeT0iMjUxLjQyNCIgeD0iNTQiIHhsaW5rOmhyZWY9IiNtY2ExMjBjOGM1YSIvPiYjeGE7ICAgICAgPC9nPiYjeGE7ICAgICA8L2c+JiN4YTsgICAgIDxnIGlkPSJ0ZXh0XzYiPiYjeGE7ICAgICAgJiN4YTsgICAgICA8ZyB0cmFuc2Zvcm09InRyYW5zbGF0ZSgzMi4xNzc1IDI1NC40NjMzNzUpIHNjYWxlKDAuMDggLTAuMDgpIj4mI3hhOyAgICAgICA8ZGVmcz4mI3hhOyAgICAgICAgPHBhdGggdHJhbnNmb3JtPSJzY2FsZSgwLjAxNTYyNSkiIGQ9Ik0gMjQxOSA0MTE2ICYjMTA7TCA4MjUgMTYyNSAmIzEwO0wgMjQxOSAxNjI1ICYjMTA7TCAyNDE5IDQxMTYgJiMxMDt6JiMxMDtNIDIyNTMgNDY2NiAmIzEwO0wgMzA0NyA0NjY2ICYjMTA7TCAzMDQ3IDE2MjUgJiMxMDtMIDM3MTMgMTYyNSAmIzEwO0wgMzcxMyAxMTAwICYjMTA7TCAzMDQ3IDExMDAgJiMxMDtMIDMwNDcgMCAmIzEwO0wgMjQxOSAwICYjMTA7TCAyNDE5IDExMDAgJiMxMDtMIDMxMyAxMTAwICYjMTA7TCAzMTMgMTcwOSAmIzEwO0wgMjI1MyA0NjY2ICYjMTA7eiIgaWQ9IkRlamFWdVNhbnMtMzQiLz4mI3hhOyAgICAgICA8L2RlZnM+JiN4YTsgICAgICAgPHVzZSB4bGluazpocmVmPSIjRGVqYVZ1U2Fucy0zMCIvPiYjeGE7ICAgICAgIDx1c2UgeD0iNjMuNjIzMDQ3IiB4bGluazpocmVmPSIjRGVqYVZ1U2Fucy0yZSIvPiYjeGE7ICAgICAgIDx1c2UgeD0iOTUuNDEwMTU2IiB4bGluazpocmVmPSIjRGVqYVZ1U2Fucy0zNCIvPiYjeGE7ICAgICAgPC9nPiYjeGE7ICAgICA8L2c+JiN4YTsgICAgPC9nPiYjeGE7ICAgIDxnIGlkPSJ5dGlja180Ij4mI3hhOyAgICAgPGcgaWQ9ImxpbmUyZF83Ij4mI3hhOyAgICAgIDxnPiYjeGE7ICAgICAgIDx1c2Ugc3R5bGU9InN0cm9rZTogIzAwMDAwMDsgc3Ryb2tlLXdpZHRoOiAwLjgiIHk9IjE4NC44OTYiIHg9IjU0IiB4bGluazpocmVmPSIjbWNhMTIwYzhjNWEiLz4mI3hhOyAgICAgIDwvZz4mI3hhOyAgICAgPC9nPiYjeGE7ICAgICA8ZyBpZD0idGV4dF83Ij4mI3hhOyAgICAgICYjeGE7ICAgICAgPGcgdHJhbnNmb3JtPSJ0cmFuc2xhdGUoMzIuMTc3NSAxODcuOTM1Mzc1KSBzY2FsZSgwLjA4IC0wLjA4KSI+JiN4YTsgICAgICAgPGRlZnM+JiN4YTsgICAgICAgIDxwYXRoIHRyYW5zZm9ybT0ic2NhbGUoMC4wMTU2MjUpIiBkPSJNIDIxMTMgMjU4NCAmIzEwO1EgMTY4OCAyNTg0IDE0MzkgMjI5MyAmIzEwO1EgMTE5MSAyMDAzIDExOTEgMTQ5NyAmIzEwO1EgMTE5MSA5OTQgMTQzOSA3MDEgJiMxMDtRIDE2ODggNDA5IDIxMTMgNDA5ICYjMTA7USAyNTM4IDQwOSAyNzg2IDcwMSAmIzEwO1EgMzAzNCA5OTQgMzAzNCAxNDk3ICYjMTA7USAzMDM0IDIwMDMgMjc4NiAyMjkzICYjMTA7USAyNTM4IDI1ODQgMjExMyAyNTg0ICYjMTA7eiYjMTA7TSAzMzY2IDQ1NjMgJiMxMDtMIDMzNjYgMzk4OCAmIzEwO1EgMzEyOCA0MTAwIDI4ODYgNDE1OSAmIzEwO1EgMjY0NCA0MjE5IDI0MDYgNDIxOSAmIzEwO1EgMTc4MSA0MjE5IDE0NTEgMzc5NyAmIzEwO1EgMTEyMiAzMzc1IDEwNzUgMjUyMiAmIzEwO1EgMTI1OSAyNzk0IDE1MzcgMjkzOSAmIzEwO1EgMTgxNiAzMDg0IDIxNTAgMzA4NCAmIzEwO1EgMjg1MyAzMDg0IDMyNjEgMjY1NyAmIzEwO1EgMzY2OSAyMjMxIDM2NjkgMTQ5NyAmIzEwO1EgMzY2OSA3NzggMzI0NCAzNDMgJiMxMDtRIDI4MTkgLTkxIDIxMTMgLTkxICYjMTA7USAxMzAzIC05MSA4NzUgNTI5ICYjMTA7USA0NDcgMTE1MCA0NDcgMjMyOCAmIzEwO1EgNDQ3IDM0MzQgOTcyIDQwOTIgJiMxMDtRIDE0OTcgNDc1MCAyMzgxIDQ3NTAgJiMxMDtRIDI2MTkgNDc1MCAyODYxIDQ3MDMgJiMxMDtRIDMxMDMgNDY1NiAzMzY2IDQ1NjMgJiMxMDt6IiBpZD0iRGVqYVZ1U2Fucy0zNiIvPiYjeGE7ICAgICAgIDwvZGVmcz4mI3hhOyAgICAgICA8dXNlIHhsaW5rOmhyZWY9IiNEZWphVnVTYW5zLTMwIi8+JiN4YTsgICAgICAgPHVzZSB4PSI2My42MjMwNDciIHhsaW5rOmhyZWY9IiNEZWphVnVTYW5zLTJlIi8+JiN4YTsgICAgICAgPHVzZSB4PSI5NS40MTAxNTYiIHhsaW5rOmhyZWY9IiNEZWphVnVTYW5zLTM2Ii8+JiN4YTsgICAgICA8L2c+JiN4YTsgICAgIDwvZz4mI3hhOyAgICA8L2c+JiN4YTsgICAgPGcgaWQ9Inl0aWNrXzUiPiYjeGE7ICAgICA8ZyBpZD0ibGluZTJkXzgiPiYjeGE7ICAgICAgPGc+JiN4YTsgICAgICAgPHVzZSBzdHlsZT0ic3Ryb2tlOiAjMDAwMDAwOyBzdHJva2Utd2lkdGg6IDAuOCIgeT0iMTE4LjM2OCIgeD0iNTQiIHhsaW5rOmhyZWY9IiNtY2ExMjBjOGM1YSIvPiYjeGE7ICAgICAgPC9nPiYjeGE7ICAgICA8L2c+JiN4YTsgICAgIDxnIGlkPSJ0ZXh0XzgiPiYjeGE7ICAgICAgJiN4YTsgICAgICA8ZyB0cmFuc2Zvcm09InRyYW5zbGF0ZSgzMi4xNzc1IDEyMS40MDczNzUpIHNjYWxlKDAuMDggLTAuMDgpIj4mI3hhOyAgICAgICA8ZGVmcz4mI3hhOyAgICAgICAgPHBhdGggdHJhbnNmb3JtPSJzY2FsZSgwLjAxNTYyNSkiIGQ9Ik0gMjAzNCAyMjE2ICYjMTA7USAxNTg0IDIyMTYgMTMyNiAxOTc1ICYjMTA7USAxMDY5IDE3MzQgMTA2OSAxMzEzICYjMTA7USAxMDY5IDg5MSAxMzI2IDY1MCAmIzEwO1EgMTU4NCA0MDkgMjAzNCA0MDkgJiMxMDtRIDI0ODQgNDA5IDI3NDMgNjUxICYjMTA7USAzMDAzIDg5NCAzMDAzIDEzMTMgJiMxMDtRIDMwMDMgMTczNCAyNzQ1IDE5NzUgJiMxMDtRIDI0ODggMjIxNiAyMDM0IDIyMTYgJiMxMDt6JiMxMDtNIDE0MDMgMjQ4NCAmIzEwO1EgOTk3IDI1ODQgNzcwIDI4NjIgJiMxMDtRIDU0NCAzMTQxIDU0NCAzNTQxICYjMTA7USA1NDQgNDEwMCA5NDIgNDQyNSAmIzEwO1EgMTM0MSA0NzUwIDIwMzQgNDc1MCAmIzEwO1EgMjczMSA0NzUwIDMxMjggNDQyNSAmIzEwO1EgMzUyNSA0MTAwIDM1MjUgMzU0MSAmIzEwO1EgMzUyNSAzMTQxIDMyOTggMjg2MiAmIzEwO1EgMzA3MiAyNTg0IDI2NjkgMjQ4NCAmIzEwO1EgMzEyNSAyMzc4IDMzNzkgMjA2OCAmIzEwO1EgMzYzNCAxNzU5IDM2MzQgMTMxMyAmIzEwO1EgMzYzNCA2MzQgMzIyMCAyNzEgJiMxMDtRIDI4MDYgLTkxIDIwMzQgLTkxICYjMTA7USAxMjYzIC05MSA4NDggMjcxICYjMTA7USA0MzQgNjM0IDQzNCAxMzEzICYjMTA7USA0MzQgMTc1OSA2OTAgMjA2OCAmIzEwO1EgOTQ3IDIzNzggMTQwMyAyNDg0ICYjMTA7eiYjMTA7TSAxMTcyIDM0ODEgJiMxMDtRIDExNzIgMzExOSAxMzk4IDI5MTYgJiMxMDtRIDE2MjUgMjcxMyAyMDM0IDI3MTMgJiMxMDtRIDI0NDEgMjcxMyAyNjcwIDI5MTYgJiMxMDtRIDI5MDAgMzExOSAyOTAwIDM0ODEgJiMxMDtRIDI5MDAgMzg0NCAyNjcwIDQwNDcgJiMxMDtRIDI0NDEgNDI1MCAyMDM0IDQyNTAgJiMxMDtRIDE2MjUgNDI1MCAxMzk4IDQwNDcgJiMxMDtRIDExNzIgMzg0NCAxMTcyIDM0ODEgJiMxMDt6IiBpZD0iRGVqYVZ1U2Fucy0zOCIvPiYjeGE7ICAgICAgIDwvZGVmcz4mI3hhOyAgICAgICA8dXNlIHhsaW5rOmhyZWY9IiNEZWphVnVTYW5zLTMwIi8+JiN4YTsgICAgICAgPHVzZSB4PSI2My42MjMwNDciIHhsaW5rOmhyZWY9IiNEZWphVnVTYW5zLTJlIi8+JiN4YTsgICAgICAgPHVzZSB4PSI5NS40MTAxNTYiIHhsaW5rOmhyZWY9IiNEZWphVnVTYW5zLTM4Ii8+JiN4YTsgICAgICA8L2c+JiN4YTsgICAgIDwvZz4mI3hhOyAgICA8L2c+JiN4YTsgICAgPGcgaWQ9Inl0aWNrXzYiPiYjeGE7ICAgICA8ZyBpZD0ibGluZTJkXzkiPiYjeGE7ICAgICAgPGc+JiN4YTsgICAgICAgPHVzZSBzdHlsZT0ic3Ryb2tlOiAjMDAwMDAwOyBzdHJva2Utd2lkdGg6IDAuOCIgeT0iNTEuODQiIHg9IjU0IiB4bGluazpocmVmPSIjbWNhMTIwYzhjNWEiLz4mI3hhOyAgICAgIDwvZz4mI3hhOyAgICAgPC9nPiYjeGE7ICAgICA8ZyBpZD0idGV4dF85Ij4mI3hhOyAgICAgICYjeGE7ICAgICAgPGcgdHJhbnNmb3JtPSJ0cmFuc2xhdGUoMzIuMTc3NSA1NC44NzkzNzUpIHNjYWxlKDAuMDggLTAuMDgpIj4mI3hhOyAgICAgICA8dXNlIHhsaW5rOmhyZWY9IiNEZWphVnVTYW5zLTMxIi8+JiN4YTsgICAgICAgPHVzZSB4PSI2My42MjMwNDciIHhsaW5rOmhyZWY9IiNEZWphVnVTYW5zLTJlIi8+JiN4YTsgICAgICAgPHVzZSB4PSI5NS40MTAxNTYiIHhsaW5rOmhyZWY9IiNEZWphVnVTYW5zLTMwIi8+JiN4YTsgICAgICA8L2c+JiN4YTsgICAgIDwvZz4mI3hhOyAgICA8L2c+JiN4YTsgICAgPGcgaWQ9InRleHRfMTAiPiYjeGE7ICAgICAmI3hhOyAgICAgPGcgdHJhbnNmb3JtPSJ0cmFuc2xhdGUoMjYuMzQ3Mzc1IDI0Mi45MDc5MzcpIHJvdGF0ZSgtOTApIHNjYWxlKDAuMDg4IC0wLjA4OCkiPiYjeGE7ICAgICAgPGRlZnM+JiN4YTsgICAgICAgPHBhdGggdHJhbnNmb3JtPSJzY2FsZSgwLjAxNTYyNSkiIGQ9Ik0gMTE3MiA0NDk0ICYjMTA7TCAxMTcyIDM1MDAgJiMxMDtMIDIzNTYgMzUwMCAmIzEwO0wgMjM1NiAzMDUzICYjMTA7TCAxMTcyIDMwNTMgJiMxMDtMIDExNzIgMTE1MyAmIzEwO1EgMTE3MiA3MjUgMTI4OSA2MDMgJiMxMDtRIDE0MDYgNDgxIDE3NjYgNDgxICYjMTA7TCAyMzU2IDQ4MSAmIzEwO0wgMjM1NiAwICYjMTA7TCAxNzY2IDAgJiMxMDtRIDExMDAgMCA4NDcgMjQ4ICYjMTA7USA1OTQgNDk3IDU5NCAxMTUzICYjMTA7TCA1OTQgMzA1MyAmIzEwO0wgMTcyIDMwNTMgJiMxMDtMIDE3MiAzNTAwICYjMTA7TCA1OTQgMzUwMCAmIzEwO0wgNTk0IDQ0OTQgJiMxMDtMIDExNzIgNDQ5NCAmIzEwO3oiIGlkPSJEZWphVnVTYW5zLTc0Ii8+JiN4YTsgICAgICAgPHBhdGggdHJhbnNmb3JtPSJzY2FsZSgwLjAxNTYyNSkiIGQ9Ik0gMjkwNiAxNzkxICYjMTA7USAyOTA2IDI0MTYgMjY0OCAyNzU5ICYjMTA7USAyMzkxIDMxMDMgMTkyNSAzMTAzICYjMTA7USAxNDYzIDMxMDMgMTIwNSAyNzU5ICYjMTA7USA5NDcgMjQxNiA5NDcgMTc5MSAmIzEwO1EgOTQ3IDExNjkgMTIwNSA4MjUgJiMxMDtRIDE0NjMgNDgxIDE5MjUgNDgxICYjMTA7USAyMzkxIDQ4MSAyNjQ4IDgyNSAmIzEwO1EgMjkwNiAxMTY5IDI5MDYgMTc5MSAmIzEwO3omIzEwO00gMzQ4MSA0MzQgJiMxMDtRIDM0ODEgLTQ1OSAzMDg0IC04OTUgJiMxMDtRIDI2ODggLTEzMzEgMTg2OSAtMTMzMSAmIzEwO1EgMTU2NiAtMTMzMSAxMjk3IC0xMjg2ICYjMTA7USAxMDI4IC0xMjQxIDc3NSAtMTE0NyAmIzEwO0wgNzc1IC01ODggJiMxMDtRIDEwMjggLTcyNSAxMjc1IC03OTAgJiMxMDtRIDE1MjIgLTg1NiAxNzc4IC04NTYgJiMxMDtRIDIzNDQgLTg1NiAyNjI1IC01NjEgJiMxMDtRIDI5MDYgLTI2NiAyOTA2IDMzMSAmIzEwO0wgMjkwNiA2MTYgJiMxMDtRIDI3MjggMzA2IDI0NTAgMTUzICYjMTA7USAyMTcyIDAgMTc4NCAwICYjMTA7USAxMTQxIDAgNzQ3IDQ5MCAmIzEwO1EgMzUzIDk4MSAzNTMgMTc5MSAmIzEwO1EgMzUzIDI2MDMgNzQ3IDMwOTMgJiMxMDtRIDExNDEgMzU4NCAxNzg0IDM1ODQgJiMxMDtRIDIxNzIgMzU4NCAyNDUwIDM0MzEgJiMxMDtRIDI3MjggMzI3OCAyOTA2IDI5NjkgJiMxMDtMIDI5MDYgMzUwMCAmIzEwO0wgMzQ4MSAzNTAwICYjMTA7TCAzNDgxIDQzNCAmIzEwO3oiIGlkPSJEZWphVnVTYW5zLTY3Ii8+JiN4YTsgICAgICA8L2RlZnM+JiN4YTsgICAgICA8dXNlIHhsaW5rOmhyZWY9IiNEZWphVnVTYW5zLTUwIi8+JiN4YTsgICAgICA8dXNlIHg9IjU2LjY3NzczNCIgeGxpbms6aHJlZj0iI0RlamFWdVNhbnMtNjUiLz4mI3hhOyAgICAgIDx1c2UgeD0iMTE4LjIwMTE3MiIgeGxpbms6aHJlZj0iI0RlamFWdVNhbnMtNzIiLz4mI3hhOyAgICAgIDx1c2UgeD0iMTU3LjA2NDQ1MyIgeGxpbms6aHJlZj0iI0RlamFWdVNhbnMtNjMiLz4mI3hhOyAgICAgIDx1c2UgeD0iMjEyLjA0NDkyMiIgeGxpbms6aHJlZj0iI0RlamFWdVNhbnMtNjUiLz4mI3hhOyAgICAgIDx1c2UgeD0iMjczLjU2ODM1OSIgeGxpbms6aHJlZj0iI0RlamFWdVNhbnMtNmUiLz4mI3hhOyAgICAgIDx1c2UgeD0iMzM2Ljk0NzI2NiIgeGxpbms6aHJlZj0iI0RlamFWdVNhbnMtNzQiLz4mI3hhOyAgICAgIDx1c2UgeD0iMzc2LjE1NjI1IiB4bGluazpocmVmPSIjRGVqYVZ1U2Fucy02MSIvPiYjeGE7ICAgICAgPHVzZSB4PSI0MzcuNDM1NTQ3IiB4bGluazpocmVmPSIjRGVqYVZ1U2Fucy02NyIvPiYjeGE7ICAgICAgPHVzZSB4PSI1MDAuOTEyMTA5IiB4bGluazpocmVmPSIjRGVqYVZ1U2Fucy02NSIvPiYjeGE7ICAgICA8L2c+JiN4YTsgICAgPC9nPiYjeGE7ICAgPC9nPiYjeGE7ICAgPGcgaWQ9InBhdGNoXzYiPiYjeGE7ICAgIDxwYXRoIHN0eWxlPSJmaWxsOiBub25lOyBzdHJva2U6ICMwMDAwMDA7IHN0cm9rZS13aWR0aDogMC44OyBzdHJva2UtbGluZWpvaW46IG1pdGVyOyBzdHJva2UtbGluZWNhcDogc3F1YXJlIiBkPSJNIDU0IDM4NC40OCAmIzEwO0wgMzg4LjggMzg0LjQ4Ii8+JiN4YTsgICA8L2c+JiN4YTsgICA8ZyBpZD0idGV4dF8xMSI+JiN4YTsgICAgJiN4YTsgICAgPGcgdHJhbnNmb3JtPSJ0cmFuc2xhdGUoODguNTIxNzMzIDE4Mi44MTYzMTIpIHNjYWxlKDAuMSAtMC4xKSI+JiN4YTsgICAgIDxkZWZzPiYjeGE7ICAgICAgPHBhdGggdHJhbnNmb3JtPSJzY2FsZSgwLjAxNTYyNSkiIGQ9Ik0gNjkxIDQ2NjYgJiMxMDtMIDMxNjkgNDY2NiAmIzEwO0wgMzE2OSA0MTM0ICYjMTA7TCAxMjY5IDQxMzQgJiMxMDtMIDEyNjkgMjk5MSAmIzEwO1EgMTQwNiAzMDM4IDE1NDMgMzA2MSAmIzEwO1EgMTY4MSAzMDg0IDE4MTkgMzA4NCAmIzEwO1EgMjYwMCAzMDg0IDMwNTYgMjY1NiAmIzEwO1EgMzUxMyAyMjI4IDM1MTMgMTQ5NyAmIzEwO1EgMzUxMyA3NDQgMzA0NCAzMjYgJiMxMDtRIDI1NzUgLTkxIDE3MjIgLTkxICYjMTA7USAxNDI4IC05MSAxMTIzIC00MSAmIzEwO1EgODE5IDkgNDk0IDEwOSAmIzEwO0wgNDk0IDc0NCAmIzEwO1EgNzc1IDU5MSAxMDc1IDUxNiAmIzEwO1EgMTM3NSA0NDEgMTcwOSA0NDEgJiMxMDtRIDIyNTAgNDQxIDI1NjUgNzI1ICYjMTA7USAyODgxIDEwMDkgMjg4MSAxNDk3ICYjMTA7USAyODgxIDE5ODQgMjU2NSAyMjY4ICYjMTA7USAyMjUwIDI1NTMgMTcwOSAyNTUzICYjMTA7USAxNDU2IDI1NTMgMTIwNCAyNDk3ICYjMTA7USA5NTMgMjQ0MSA2OTEgMjMyMiAmIzEwO0wgNjkxIDQ2NjYgJiMxMDt6IiBpZD0iRGVqYVZ1U2Fucy0zNSIvPiYjeGE7ICAgICA8L2RlZnM+JiN4YTsgICAgIDx1c2UgeGxpbms6aHJlZj0iI0RlamFWdVNhbnMtMzAiLz4mI3hhOyAgICAgPHVzZSB4PSI2My42MjMwNDciIHhsaW5rOmhyZWY9IiNEZWphVnVTYW5zLTJlIi8+JiN4YTsgICAgIDx1c2UgeD0iOTUuNDEwMTU2IiB4bGluazpocmVmPSIjRGVqYVZ1U2Fucy0zNSIvPiYjeGE7ICAgICA8dXNlIHg9IjE1OS4wMzMyMDMiIHhsaW5rOmhyZWY9IiNEZWphVnVTYW5zLTM4Ii8+JiN4YTsgICAgPC9nPiYjeGE7ICAgPC9nPiYjeGE7ICAgPGcgaWQ9InRleHRfMTIiPiYjeGE7ICAgICYjeGE7ICAgIDxnIHRyYW5zZm9ybT0idHJhbnNsYXRlKDIxMC4yNjcxODggMTMyLjkyMDMxMykgc2NhbGUoMC4xIC0wLjEpIj4mI3hhOyAgICAgPGRlZnM+JiN4YTsgICAgICA8cGF0aCB0cmFuc2Zvcm09InNjYWxlKDAuMDE1NjI1KSIgZD0iTSA1MjUgNDY2NiAmIzEwO0wgMzUyNSA0NjY2ICYjMTA7TCAzNTI1IDQzOTcgJiMxMDtMIDE4MzEgMCAmIzEwO0wgMTE3MiAwICYjMTA7TCAyNzY2IDQxMzQgJiMxMDtMIDUyNSA0MTM0ICYjMTA7TCA1MjUgNDY2NiAmIzEwO3oiIGlkPSJEZWphVnVTYW5zLTM3Ii8+JiN4YTsgICAgICA8cGF0aCB0cmFuc2Zvcm09InNjYWxlKDAuMDE1NjI1KSIgZD0iTSAyNTk3IDI1MTYgJiMxMDtRIDMwNTAgMjQxOSAzMzA0IDIxMTIgJiMxMDtRIDM1NTkgMTgwNiAzNTU5IDEzNTYgJiMxMDtRIDM1NTkgNjY2IDMwODQgMjg3ICYjMTA7USAyNjA5IC05MSAxNzM0IC05MSAmIzEwO1EgMTQ0MSAtOTEgMTEzMCAtMzMgJiMxMDtRIDgxOSAyNSA0ODggMTQxICYjMTA7TCA0ODggNzUwICYjMTA7USA3NTAgNTk3IDEwNjIgNTE5ICYjMTA7USAxMzc1IDQ0MSAxNzE2IDQ0MSAmIzEwO1EgMjMwOSA0NDEgMjYyMCA2NzUgJiMxMDtRIDI5MzEgOTA5IDI5MzEgMTM1NiAmIzEwO1EgMjkzMSAxNzY5IDI2NDIgMjAwMSAmIzEwO1EgMjM1MyAyMjM0IDE4MzggMjIzNCAmIzEwO0wgMTI5NCAyMjM0ICYjMTA7TCAxMjk0IDI3NTMgJiMxMDtMIDE4NjMgMjc1MyAmIzEwO1EgMjMyOCAyNzUzIDI1NzUgMjkzOSAmIzEwO1EgMjgyMiAzMTI1IDI4MjIgMzQ3NSAmIzEwO1EgMjgyMiAzODM0IDI1NjcgNDAyNiAmIzEwO1EgMjMxMyA0MjE5IDE4MzggNDIxOSAmIzEwO1EgMTU3OCA0MjE5IDEyODEgNDE2MiAmIzEwO1EgOTg0IDQxMDYgNjI4IDM5ODggJiMxMDtMIDYyOCA0NTUwICYjMTA7USA5ODggNDY1MCAxMzAyIDQ3MDAgJiMxMDtRIDE2MTYgNDc1MCAxODk0IDQ3NTAgJiMxMDtRIDI2MTMgNDc1MCAzMDMxIDQ0MjMgJiMxMDtRIDM0NTAgNDA5NyAzNDUwIDM1NDEgJiMxMDtRIDM0NTAgMzE1MyAzMjI4IDI4ODYgJiMxMDtRIDMwMDYgMjYxOSAyNTk3IDI1MTYgJiMxMDt6IiBpZD0iRGVqYVZ1U2Fucy0zMyIvPiYjeGE7ICAgICA8L2RlZnM+JiN4YTsgICAgIDx1c2UgeGxpbms6aHJlZj0iI0RlamFWdVNhbnMtMzAiLz4mI3hhOyAgICAgPHVzZSB4PSI2My42MjMwNDciIHhsaW5rOmhyZWY9IiNEZWphVnVTYW5zLTJlIi8+JiN4YTsgICAgIDx1c2UgeD0iOTUuNDEwMTU2IiB4bGluazpocmVmPSIjRGVqYVZ1U2Fucy0zNyIvPiYjeGE7ICAgICA8dXNlIHg9IjE1OS4wMzMyMDMiIHhsaW5rOmhyZWY9IiNEZWphVnVTYW5zLTMzIi8+JiN4YTsgICAgPC9nPiYjeGE7ICAgPC9nPiYjeGE7ICAgPGcgaWQ9InRleHRfMTMiPiYjeGE7ICAgICYjeGE7ICAgIDxnIHRyYW5zZm9ybT0idHJhbnNsYXRlKDMzMi4wMTI2NDIgMTU5LjUzMTUxMikgc2NhbGUoMC4xIC0wLjEpIj4mI3hhOyAgICAgPHVzZSB4bGluazpocmVmPSIjRGVqYVZ1U2Fucy0zMCIvPiYjeGE7ICAgICA8dXNlIHg9IjYzLjYyMzA0NyIgeGxpbms6aHJlZj0iI0RlamFWdVNhbnMtMmUiLz4mI3hhOyAgICAgPHVzZSB4PSI5NS40MTAxNTYiIHhsaW5rOmhyZWY9IiNEZWphVnVTYW5zLTM2Ii8+JiN4YTsgICAgIDx1c2UgeD0iMTU5LjAzMzIwMyIgeGxpbms6aHJlZj0iI0RlamFWdVNhbnMtMzUiLz4mI3hhOyAgICA8L2c+JiN4YTsgICA8L2c+JiN4YTsgIDwvZz4mI3hhOyAgPGcgaWQ9InRleHRfMTQiPiYjeGE7ICAgJiN4YTsgICA8ZyB0cmFuc2Zvcm09InRyYW5zbGF0ZSgxOTAuNDg1IDE5LjAzMDYyNSkgc2NhbGUoMC4xNCAtMC4xNCkiPiYjeGE7ICAgIDxkZWZzPiYjeGE7ICAgICA8cGF0aCB0cmFuc2Zvcm09InNjYWxlKDAuMDE1NjI1KSIgZD0iTSAzODM0IDQ1MTkgJiMxMDtMIDM4MzQgMzUzMSAmIzEwO1EgMzQ1MCAzNzAzIDMwODQgMzc5MCAmIzEwO1EgMjcxOSAzODc4IDIzOTQgMzg3OCAmIzEwO1EgMTk2MyAzODc4IDE3NTYgMzc1OSAmIzEwO1EgMTU1MCAzNjQxIDE1NTAgMzM5MSAmIzEwO1EgMTU1MCAzMjAzIDE2ODkgMzA5OCAmIzEwO1EgMTgyOCAyOTk0IDIxOTQgMjkxOSAmIzEwO0wgMjcwNiAyODE2ICYjMTA7USAzNDg0IDI2NTkgMzgxMiAyMzQwICYjMTA7USA0MTQxIDIwMjIgNDE0MSAxNDM0ICYjMTA7USA0MTQxIDY2MyAzNjgzIDI4NiAmIzEwO1EgMzIyNSAtOTEgMjI4NCAtOTEgJiMxMDtRIDE4NDEgLTkxIDEzOTQgLTYgJiMxMDtRIDk0NyA3OCA1MDAgMjQ0ICYjMTA7TCA1MDAgMTI1OSAmIzEwO1EgOTQ3IDEwMjIgMTM2NCA5MDEgJiMxMDtRIDE3ODEgNzgxIDIxNjkgNzgxICYjMTA7USAyNTYzIDc4MSAyNzcyIDkxMiAmIzEwO1EgMjk4MSAxMDQ0IDI5ODEgMTI4OCAmIzEwO1EgMjk4MSAxNTA2IDI4MzkgMTYyNSAmIzEwO1EgMjY5NyAxNzQ0IDIyNzIgMTgzOCAmIzEwO0wgMTgwNiAxOTQxICYjMTA7USAxMTA2IDIwOTEgNzgyIDI0MTkgJiMxMDtRIDQ1OSAyNzQ3IDQ1OSAzMzAzICYjMTA7USA0NTkgNDAwMCA5MDkgNDM3NSAmIzEwO1EgMTM1OSA0NzUwIDIyMDMgNDc1MCAmIzEwO1EgMjU4OCA0NzUwIDI5OTQgNDY5MiAmIzEwO1EgMzQwMCA0NjM0IDM4MzQgNDUxOSAmIzEwO3oiIGlkPSJEZWphVnVTYW5zLUJvbGQtNTMiLz4mI3hhOyAgICAgPHBhdGggdHJhbnNmb3JtPSJzY2FsZSgwLjAxNTYyNSkiIGQ9Ik0gMjIwMyAyNzg0ICYjMTA7USAxODMxIDI3ODQgMTYzNiAyNTE3ICYjMTA7USAxNDQxIDIyNTAgMTQ0MSAxNzQ3ICYjMTA7USAxNDQxIDEyNDQgMTYzNiA5NzYgJiMxMDtRIDE4MzEgNzA5IDIyMDMgNzA5ICYjMTA7USAyNTY5IDcwOSAyNzYyIDk3NiAmIzEwO1EgMjk1NiAxMjQ0IDI5NTYgMTc0NyAmIzEwO1EgMjk1NiAyMjUwIDI3NjIgMjUxNyAmIzEwO1EgMjU2OSAyNzg0IDIyMDMgMjc4NCAmIzEwO3omIzEwO00gMjIwMyAzNTg0ICYjMTA7USAzMTA2IDM1ODQgMzYxNCAzMDk2ICYjMTA7USA0MTIyIDI2MDkgNDEyMiAxNzQ3ICYjMTA7USA0MTIyIDg4NCAzNjE0IDM5NiAmIzEwO1EgMzEwNiAtOTEgMjIwMyAtOTEgJiMxMDtRIDEyOTcgLTkxIDc4NiAzOTYgJiMxMDtRIDI3NSA4ODQgMjc1IDE3NDcgJiMxMDtRIDI3NSAyNjA5IDc4NiAzMDk2ICYjMTA7USAxMjk3IDM1ODQgMjIwMyAzNTg0ICYjMTA7eiIgaWQ9IkRlamFWdVNhbnMtQm9sZC02ZiIvPiYjeGE7ICAgICA8cGF0aCB0cmFuc2Zvcm09InNjYWxlKDAuMDE1NjI1KSIgZD0iTSAzNzgxIDI5MTkgJiMxMDtRIDM5OTQgMzI0NCA0Mjg2IDM0MTQgJiMxMDtRIDQ1NzggMzU4NCA0OTI4IDM1ODQgJiMxMDtRIDU1MzEgMzU4NCA1ODQ3IDMyMTIgJiMxMDtRIDYxNjMgMjg0MSA2MTYzIDIxMzEgJiMxMDtMIDYxNjMgMCAmIzEwO0wgNTAzOCAwICYjMTA7TCA1MDM4IDE4MjUgJiMxMDtRIDUwNDEgMTg2NiA1MDQyIDE5MDkgJiMxMDtRIDUwNDQgMTk1MyA1MDQ0IDIwMzQgJiMxMDtRIDUwNDQgMjQwNiA0OTM0IDI1NzMgJiMxMDtRIDQ4MjUgMjc0MSA0NTgxIDI3NDEgJiMxMDtRIDQyNjMgMjc0MSA0MDg5IDI0NzggJiMxMDtRIDM5MTYgMjIxNiAzOTA5IDE3MTkgJiMxMDtMIDM5MDkgMCAmIzEwO0wgMjc4NCAwICYjMTA7TCAyNzg0IDE4MjUgJiMxMDtRIDI3ODQgMjQwNiAyNjg0IDI1NzMgJiMxMDtRIDI1ODQgMjc0MSAyMzI4IDI3NDEgJiMxMDtRIDIwMDYgMjc0MSAxODMxIDI0NzcgJiMxMDtRIDE2NTYgMjIxMyAxNjU2IDE3MjIgJiMxMDtMIDE2NTYgMCAmIzEwO0wgNTMxIDAgJiMxMDtMIDUzMSAzNTAwICYjMTA7TCAxNjU2IDM1MDAgJiMxMDtMIDE2NTYgMjk4OCAmIzEwO1EgMTg2MyAzMjg0IDIxMzAgMzQzNCAmIzEwO1EgMjM5NyAzNTg0IDI3MTkgMzU4NCAmIzEwO1EgMzA4MSAzNTg0IDMzNTkgMzQwOSAmIzEwO1EgMzYzOCAzMjM0IDM3ODEgMjkxOSAmIzEwO3oiIGlkPSJEZWphVnVTYW5zLUJvbGQtNmQiLz4mI3hhOyAgICAgPHBhdGggdHJhbnNmb3JtPSJzY2FsZSgwLjAxNTYyNSkiIGQ9Ik0gMzIwMCAtOTE2ICYjMTA7TCAzMjAwIC0xNTA5ICYjMTA7TCAwIC0xNTA5ICYjMTA7TCAwIC05MTYgJiMxMDtMIDMyMDAgLTkxNiAmIzEwO3oiIGlkPSJEZWphVnVTYW5zLUJvbGQtNWYiLz4mI3hhOyAgICAgPHBhdGggdHJhbnNmb3JtPSJzY2FsZSgwLjAxNTYyNSkiIGQ9Ik0gMTg0NCA4ODQgJiMxMDtMIDM4OTcgODg0ICYjMTA7TCAzODk3IDAgJiMxMDtMIDUwNiAwICYjMTA7TCA1MDYgODg0ICYjMTA7TCAyMjA5IDIzODggJiMxMDtRIDI0MzggMjU5NCAyNTQ3IDI3OTEgJiMxMDtRIDI2NTYgMjk4OCAyNjU2IDMyMDAgJiMxMDtRIDI2NTYgMzUyOCAyNDM2IDM3MjggJiMxMDtRIDIyMTYgMzkyOCAxODUwIDM5MjggJiMxMDtRIDE1NjkgMzkyOCAxMjM0IDM4MDggJiMxMDtRIDkwMCAzNjg4IDUxOSAzNDUwICYjMTA7TCA1MTkgNDQ3NSAmIzEwO1EgOTI1IDQ2MDkgMTMyMiA0Njc5ICYjMTA7USAxNzE5IDQ3NTAgMjEwMCA0NzUwICYjMTA7USAyOTM4IDQ3NTAgMzQwMiA0MzgxICYjMTA7USAzODY2IDQwMTMgMzg2NiAzMzUzICYjMTA7USAzODY2IDI5NzIgMzY2OSAyNjQyICYjMTA7USAzNDcyIDIzMTMgMjg0MSAxNzU5ICYjMTA7TCAxODQ0IDg4NCAmIzEwO3oiIGlkPSJEZWphVnVTYW5zLUJvbGQtMzIiLz4mI3hhOyAgICA8L2RlZnM+JiN4YTsgICAgPHVzZSB4bGluazpocmVmPSIjRGVqYVZ1U2Fucy1Cb2xkLTUzIi8+JiN4YTsgICAgPHVzZSB4PSI3Mi4wMjE0ODQiIHhsaW5rOmhyZWY9IiNEZWphVnVTYW5zLUJvbGQtNmYiLz4mI3hhOyAgICA8dXNlIHg9IjE0MC43MjI2NTYiIHhsaW5rOmhyZWY9IiNEZWphVnVTYW5zLUJvbGQtNmQiLz4mI3hhOyAgICA8dXNlIHg9IjI0NC45MjE4NzUiIHhsaW5rOmhyZWY9IiNEZWphVnVTYW5zLUJvbGQtNWYiLz4mI3hhOyAgICA8dXNlIHg9IjI5NC45MjE4NzUiIHhsaW5rOmhyZWY9IiNEZWphVnVTYW5zLUJvbGQtMzIiLz4mI3hhOyAgIDwvZz4mI3hhOyAgPC9nPiYjeGE7IDwvZz4mI3hhOyA8ZGVmcz4mI3hhOyAgPGNsaXBQYXRoIGlkPSJwNDE4MzNhODIxZSI+JiN4YTsgICA8cmVjdCBoZWlnaHQ9IjMzMi42NCIgd2lkdGg9IjMzNC44IiB5PSI1MS44NCIgeD0iNTQiLz4mI3hhOyAgPC9jbGlwUGF0aD4mI3hhOyA8L2RlZnM+JiN4YTs8L3N2Zz4=;" vertex="1" parent="1">
          <mxGeometry x="560" y="220" width="432" height="432" as="geometry" />
        </mxCell>
      </root>
    </mxGraphModel>
  </diagram>
</mxfile>
